<?xml version="1.0" encoding="utf-8"?>
<!-- Generator: Adobe Illustrator 24.0.2, SVG Export Plug-In . SVG Version: 6.00 Build 0)  -->
<svg version="1.1" id="Layer_1" xmlns="http://www.w3.org/2000/svg" xmlns:xlink="http://www.w3.org/1999/xlink" x="0px" y="0px"
	 viewBox="0 0 900 792" style="enable-background:new 0 0 900 792;" xml:space="preserve">
<g>
	<path d="M450,679.94c-75.84,0-147.14-29.53-200.77-83.16C195.6,543.14,166.06,471.84,166.06,396s29.53-147.14,83.16-200.77
		S374.16,112.06,450,112.06s147.14,29.53,200.77,83.16c53.63,53.63,83.16,124.93,83.16,200.77s-29.53,147.14-83.16,200.77
		C597.14,650.4,525.84,679.94,450,679.94z M450,129.06c-147.19,0-266.94,119.75-266.94,266.94c0,147.19,119.75,266.94,266.94,266.94
		c147.19,0,266.94-119.75,266.94-266.94C716.94,248.81,597.19,129.06,450,129.06z"/>
</g>
<rect x="717.84" y="540.74" transform="matrix(0.6568 -0.754 0.754 0.6568 -231.166 774.4534)" width="34.84" height="200.9"/>
<g>
	<path d="M314.48,294.07c-4.75,0.74-9.16,1.68-13.22,2.82c-0.86,0.31-1.52,0.46-2,0.46c-0.55,0-1.01-0.25-1.39-0.75
		c-0.24-0.29-0.36-0.62-0.36-1c0-1.02,0.74-1.77,2.21-2.25c3.94-1.19,8.59-2.28,13.94-3.28c6.7-1.21,13.14-1.82,19.32-1.82
		c2.09,0,3.49,0.13,4.21,0.39c0.67,0.24,1,0.69,1,1.35c0,1.12-0.82,1.77-2.46,1.96c-1.43,0.14-3.58,0.25-6.45,0.32
		c-5.73,0.19-9.65,0.55-11.76,1.07c0.59,0.24,0.89,0.61,0.89,1.1c0,0.52-0.38,1.34-1.14,2.46c-4.52,6.61-8.83,14.1-12.94,22.49
		c-3.14,6.37-5.43,12.02-6.88,16.97c-0.33,1.5-0.9,2.25-1.71,2.25c-0.74,0-1.35-0.38-1.85-1.14c-0.33-0.5-0.5-1.02-0.5-1.57
		c0-2.19,2.08-7.51,6.24-15.97c2.66-5.44,5.12-10.03,7.38-13.76c0.9-1.52,3.08-5.05,6.52-10.59L314.48,294.07z"/>
	<path d="M329.6,328.75c-0.78,1.38-1.56,2.54-2.32,3.49c-1.5,1.85-2.98,2.78-4.46,2.78c-1.28,0-2.28-0.61-2.99-1.82
		c-0.45-0.78-0.68-1.71-0.68-2.78c0-2.64,0.83-5.55,2.5-8.73c1.85-3.54,4.09-6.26,6.7-8.16c1.71-1.24,3.36-1.85,4.95-1.85
		c1,0,1.83,0.31,2.5,0.93c0.57,0.55,0.86,1.16,0.86,1.85c0,0.52-0.2,1.25-0.61,2.17c0.36,0.5,0.53,0.94,0.53,1.32
		c0,0.5-0.33,1.32-1,2.46c-0.69,1.16-1.38,2.71-2.07,4.63c-0.74,2.04-1.1,3.68-1.1,4.92c0,1,0.3,1.82,0.89,2.46
		c0.17,0.17,0.65,0.44,1.46,0.82c0.59,0.29,0.89,0.78,0.89,1.5c0,0.45-0.17,0.82-0.5,1.1c-0.36,0.31-0.77,0.46-1.25,0.46
		c-1.28,0-2.39-0.57-3.31-1.71c-0.76-0.93-1.14-2.09-1.14-3.49C329.45,330.63,329.5,329.85,329.6,328.75z M334.05,317.03
		c-0.29-0.52-0.59-0.91-0.93-1.16c-0.33-0.25-0.69-0.37-1.07-0.37c-1.81,0-3.77,1.58-5.88,4.74c-2.33,3.49-3.49,6.45-3.49,8.88
		c0,0.59,0.11,1.05,0.34,1.35c0.23,0.31,0.56,0.46,1.02,0.46c1.14,0,2.47-1.21,3.99-3.64c0.86-1.33,1.91-3.29,3.17-5.88
		c0.83-1.69,1.44-2.8,1.82-3.35C333.21,317.78,333.55,317.43,334.05,317.03z"/>
	<path d="M352.62,319.38c-1.54,3.83-2.32,6.74-2.32,8.73c0,0.97,0.19,1.78,0.57,2.42c0.48,0.81,1.1,1.21,1.89,1.21
		c1.62,0,3.48-1.08,5.6-3.24c1.4-1.38,2.58-2.78,3.53-4.21c0.62-0.95,1.2-1.43,1.75-1.43c0.55,0,0.82,0.27,0.82,0.82
		c0,0.9-1.09,2.76-3.28,5.56c-3.23,4.16-6.37,6.24-9.41,6.24c-1.83,0-3.13-0.89-3.89-2.67c-0.57-1.31-0.86-2.69-0.86-4.13
		c0-1.21,0.29-3.01,0.86-5.38c-1.54,1.28-3.89,4.42-7.02,9.41c-0.83,1.35-1.59,2.03-2.28,2.03c-0.36,0-0.67-0.15-0.93-0.46
		c-0.26-0.33-0.39-0.67-0.39-1c0-0.95,1.25-4.12,3.74-9.52c4.4-9.43,9.1-17.37,14.12-23.81c2.71-3.52,5.14-6.08,7.31-7.7
		c1.95-1.47,3.5-2.21,4.67-2.21c0.52,0,0.99,0.21,1.39,0.64c0.52,0.52,0.78,1.16,0.78,1.92c0,2.02-1.06,4.61-3.17,7.77
		c-2.21,3.26-5.96,7.19-11.26,11.8c-2.97,2.57-5.64,4.59-8.02,6.06c-0.31,0.62-1.18,2.42-2.6,5.42c2.97-3.21,5.32-5.42,7.06-6.63
		c1.12-0.76,2.63-1.56,4.53-2.39c1.28-0.55,2.21-0.82,2.78-0.82c0.31,0,0.58,0.12,0.82,0.36c0.26,0.21,0.39,0.5,0.39,0.86
		c0,0.78-0.53,1.33-1.6,1.64C356.38,317.22,354.52,318.12,352.62,319.38z M349.56,313.25c3.9-2.57,7.53-5.83,10.91-9.8
		c1.69-1.97,3.04-3.87,4.06-5.7c0.71-1.28,1.07-2.2,1.07-2.74c0-0.55-0.25-0.82-0.75-0.82c-1.33,0-3.62,2.04-6.88,6.13
		C355.28,303.71,352.48,308.02,349.56,313.25z"/>
	<path d="M373.3,313.29c0.4,0,0.74,0.15,1,0.46c0.19,0.26,0.29,0.52,0.29,0.78c0,0.43-0.34,1.14-1.03,2.14
		c-2.47,3.83-4.23,6.97-5.28,9.45c-1.12,2.54-2.1,5.16-2.96,7.84c-0.38,1.19-0.97,1.78-1.78,1.78c-0.48,0-0.86-0.19-1.14-0.57
		c-0.26-0.31-0.39-0.64-0.39-1c0-0.71,0.76-3.09,2.28-7.13c1.19-3.18,3.11-6.7,5.77-10.55c0.86-1.26,1.5-2.1,1.92-2.53
		C372.4,313.51,372.84,313.29,373.3,313.29z M380.07,300.06c1.07,0,1.6,0.55,1.6,1.64c0,1-0.52,2.1-1.57,3.31
		c-1,1.16-1.96,1.75-2.89,1.75c-0.45,0-0.82-0.17-1.1-0.5c-0.29-0.31-0.43-0.69-0.43-1.14c0-1.14,0.63-2.35,1.89-3.64
		C378.5,300.54,379.33,300.06,380.07,300.06z"/>
	<path d="M380.18,322.41c0.31-0.29,0.61-0.57,0.89-0.86c4.97-4.85,8.29-7.27,9.98-7.27c0.93,0,1.39,0.51,1.39,1.53
		c0,0.71-0.42,1.56-1.25,2.53c-4.54,5.3-6.81,9.97-6.81,14.01c0,1.31,0.36,2.55,1.07,3.74c0.33,0.55,0.5,0.97,0.5,1.28
		c0,0.29-0.14,0.56-0.43,0.82c-0.31,0.33-0.68,0.5-1.1,0.5c-0.97,0-1.79-0.62-2.46-1.85c-0.64-1.16-0.96-2.58-0.96-4.24
		c0-3.21,1.21-6.76,3.64-10.66c-3.23,2.07-6.24,5.73-9.02,10.98c-0.71,1.26-1.47,1.89-2.28,1.89c-0.4,0-0.74-0.14-1-0.43
		c-0.33-0.33-0.5-0.76-0.5-1.28c0-1.28,1.46-4.65,4.38-10.09c1.57-2.95,2.8-5.08,3.71-6.42c0.9-1.31,1.68-1.96,2.32-1.96
		c0.31,0,0.61,0.14,0.89,0.43c0.33,0.33,0.5,0.71,0.5,1.14c0,0.52-0.34,1.27-1.03,2.25C381.6,319.9,380.79,321.22,380.18,322.41z"/>
	<path d="M403.02,331.57c2.54-1.85,4.43-3.54,5.67-5.06c1.83-2.21,3.12-4,3.89-5.38c0.38-0.62,0.77-0.93,1.18-0.93
		c0.57,0,0.86,0.27,0.86,0.82c0,0.64-0.45,1.71-1.35,3.21c-2.8,4.56-7.01,8.54-12.62,11.94c-2.61,5.47-4.54,9.17-5.77,11.12
		c-3.28,5.13-6.37,7.7-9.27,7.7c-1.52,0-2.61-0.59-3.28-1.78c-0.38-0.69-0.57-1.47-0.57-2.35c0-3.73,2.4-7.31,7.2-10.73
		c0.76-0.57,3.84-2.35,9.23-5.35c1.05-2.21,1.85-3.94,2.42-5.2c-2.5,2.61-4.56,3.92-6.2,3.92c-1.02,0-1.82-0.52-2.39-1.57
		c-0.36-0.69-0.53-1.4-0.53-2.14c0-1.71,0.7-3.91,2.1-6.59c2-3.87,4.4-6.94,7.2-9.2c2.35-1.88,4.43-2.82,6.24-2.82
		c0.93,0,1.72,0.34,2.39,1.03c0.45,0.45,0.68,1.12,0.68,2c0,1.09-0.37,2.45-1.1,4.06c0.55,0.52,0.82,0.92,0.82,1.18
		c0,0.17-0.12,0.4-0.36,0.71c-0.64,0.88-1.68,2.53-3.1,4.95C405.08,327.23,403.97,329.38,403.02,331.57z M396.04,338.91
		c-3.14,1.33-5.9,3.35-8.31,6.06c-1.12,1.26-1.91,2.59-2.39,3.99c-0.14,0.43-0.21,0.78-0.21,1.07c0,0.31,0.07,0.58,0.21,0.82
		c0.26,0.43,0.63,0.64,1.1,0.64c1.47,0,3.2-1.58,5.17-4.74C393.33,344.02,394.8,341.41,396.04,338.91z M402.77,323.34
		c-0.33-0.36-0.5-0.61-0.5-0.75c0-0.21,0.18-0.49,0.53-0.82c1.19-1.14,2.15-2.33,2.89-3.56c0.59-0.97,0.89-1.73,0.89-2.28
		c0-0.64-0.3-0.96-0.89-0.96c-1.02,0-2.48,0.97-4.38,2.92c-2.26,2.31-4.02,4.88-5.28,7.73c-0.62,1.43-0.93,2.52-0.93,3.28
		c0,0.43,0.09,0.75,0.29,0.96c0.19,0.21,0.46,0.32,0.82,0.32c0.83,0,2-0.86,3.49-2.57c0.95-1.09,1.76-2.16,2.42-3.21
		C402.58,323.72,402.8,323.36,402.77,323.34z"/>
	<path d="M443.37,328.75c-0.78,1.38-1.56,2.54-2.32,3.49c-1.5,1.85-2.98,2.78-4.46,2.78c-1.28,0-2.28-0.61-2.99-1.82
		c-0.45-0.78-0.68-1.71-0.68-2.78c0-2.64,0.83-5.55,2.5-8.73c1.85-3.54,4.09-6.26,6.7-8.16c1.71-1.24,3.36-1.85,4.95-1.85
		c1,0,1.83,0.31,2.5,0.93c0.57,0.55,0.86,1.16,0.86,1.85c0,0.52-0.2,1.25-0.61,2.17c0.36,0.5,0.53,0.94,0.53,1.32
		c0,0.5-0.33,1.32-1,2.46c-0.69,1.16-1.38,2.71-2.07,4.63c-0.74,2.04-1.1,3.68-1.1,4.92c0,1,0.3,1.82,0.89,2.46
		c0.17,0.17,0.65,0.44,1.46,0.82c0.59,0.29,0.89,0.78,0.89,1.5c0,0.45-0.17,0.82-0.5,1.1c-0.36,0.31-0.77,0.46-1.25,0.46
		c-1.28,0-2.39-0.57-3.31-1.71c-0.76-0.93-1.14-2.09-1.14-3.49C443.23,330.63,443.28,329.85,443.37,328.75z M447.83,317.03
		c-0.29-0.52-0.59-0.91-0.93-1.16c-0.33-0.25-0.69-0.37-1.07-0.37c-1.81,0-3.77,1.58-5.88,4.74c-2.33,3.49-3.49,6.45-3.49,8.88
		c0,0.59,0.11,1.05,0.34,1.35c0.23,0.31,0.56,0.46,1.02,0.46c1.14,0,2.47-1.21,3.99-3.64c0.86-1.33,1.91-3.29,3.17-5.88
		c0.83-1.69,1.44-2.8,1.82-3.35C446.98,317.78,447.33,317.43,447.83,317.03z"/>
	<path d="M475.88,322.8c-0.71,1.85-1.25,3.35-1.6,4.49s-0.53,1.94-0.53,2.39c0,0.59,0.29,0.89,0.86,0.89c0.86,0,1.96-0.81,3.31-2.42
		c0.64-0.78,1.59-2.2,2.85-4.24c0.5-0.81,1.02-1.21,1.57-1.21c0.62,0,0.93,0.3,0.93,0.89c0,1.02-1.18,3.09-3.53,6.2
		c-2.45,3.26-4.72,4.88-6.81,4.88c-0.9,0-1.64-0.38-2.21-1.14c-0.4-0.55-0.61-1.21-0.61-2c0-1.33,0.4-3.17,1.21-5.52
		s2.01-5.22,3.6-8.59c4.09-8.58,8.26-15.65,12.51-21.21c3.4-4.47,6.21-6.7,8.45-6.7c0.71,0,1.29,0.27,1.75,0.82
		c0.47,0.55,0.71,1.18,0.71,1.89c0,3.33-2.97,8.86-8.91,16.61c-2.66,3.45-5.85,6.89-9.55,10.34
		C478.9,320.07,477.57,321.28,475.88,322.8z M478.41,317.13c4.94-4.23,9.36-9.58,13.26-16.04c2.02-3.35,3.03-5.57,3.03-6.67
		c0-0.52-0.23-0.78-0.68-0.78c-1.31,0-3.68,2.6-7.13,7.81C484.04,305.73,481.22,310.96,478.41,317.13z"/>
	<path d="M499.48,311.65c1.95,0,2.92,1.19,2.92,3.56c0,3.16-1.46,7.16-4.38,12.01c-3.19,5.25-6.26,7.88-9.23,7.88
		c-1.38,0-2.39-0.64-3.03-1.92c-0.33-0.64-0.5-1.41-0.5-2.32c0-3.04,1.05-6.34,3.14-9.91c1.95-3.3,4.24-5.87,6.88-7.7
		C496.82,312.18,498.22,311.65,499.48,311.65z M495.77,325.12c-0.59-0.48-0.89-0.84-0.89-1.1c0-0.19,0.38-0.71,1.14-1.57
		c2.14-2.4,3.21-4.34,3.21-5.81c0-0.19-0.06-0.38-0.18-0.57c-0.19-0.36-0.49-0.53-0.89-0.53c-0.76,0-1.88,0.74-3.35,2.21
		c-1.9,1.9-3.35,3.86-4.35,5.88c-1.16,2.31-1.75,4.22-1.75,5.74c0,0.4,0.11,0.76,0.32,1.07c0.31,0.43,0.7,0.64,1.18,0.64
		c1.14,0,2.36-0.86,3.67-2.57c0.57-0.71,1.03-1.45,1.39-2.21C495.63,325.54,495.79,325.14,495.77,325.12z"/>
	<path d="M516.41,311.65c1.95,0,2.92,1.19,2.92,3.56c0,3.16-1.46,7.16-4.38,12.01c-3.19,5.25-6.26,7.88-9.23,7.88
		c-1.38,0-2.39-0.64-3.03-1.92c-0.33-0.64-0.5-1.41-0.5-2.32c0-3.04,1.05-6.34,3.14-9.91c1.95-3.3,4.24-5.87,6.88-7.7
		C513.75,312.18,515.15,311.65,516.41,311.65z M512.7,325.12c-0.59-0.48-0.89-0.84-0.89-1.1c0-0.19,0.38-0.71,1.14-1.57
		c2.14-2.4,3.21-4.34,3.21-5.81c0-0.19-0.06-0.38-0.18-0.57c-0.19-0.36-0.49-0.53-0.89-0.53c-0.76,0-1.88,0.74-3.35,2.21
		c-1.9,1.9-3.35,3.86-4.35,5.88c-1.17,2.31-1.75,4.22-1.75,5.74c0,0.4,0.11,0.76,0.32,1.07c0.31,0.43,0.7,0.64,1.18,0.64
		c1.14,0,2.36-0.86,3.67-2.57c0.57-0.71,1.03-1.45,1.39-2.21C512.56,325.54,512.73,325.14,512.7,325.12z"/>
	<path d="M534.2,319.38c-1.54,3.83-2.32,6.74-2.32,8.73c0,0.97,0.19,1.78,0.57,2.42c0.47,0.81,1.1,1.21,1.89,1.21
		c1.62,0,3.48-1.08,5.6-3.24c1.4-1.38,2.58-2.78,3.53-4.21c0.62-0.95,1.2-1.43,1.75-1.43s0.82,0.27,0.82,0.82
		c0,0.9-1.09,2.76-3.28,5.56c-3.23,4.16-6.37,6.24-9.41,6.24c-1.83,0-3.13-0.89-3.88-2.67c-0.57-1.31-0.86-2.69-0.86-4.13
		c0-1.21,0.29-3.01,0.86-5.38c-1.55,1.28-3.89,4.42-7.02,9.41c-0.83,1.35-1.59,2.03-2.28,2.03c-0.36,0-0.67-0.15-0.93-0.46
		c-0.26-0.33-0.39-0.67-0.39-1c0-0.95,1.25-4.12,3.74-9.52c4.4-9.43,9.1-17.37,14.12-23.81c2.71-3.52,5.14-6.08,7.31-7.7
		c1.95-1.47,3.5-2.21,4.67-2.21c0.52,0,0.99,0.21,1.39,0.64c0.52,0.52,0.79,1.16,0.79,1.92c0,2.02-1.06,4.61-3.17,7.77
		c-2.21,3.26-5.96,7.19-11.26,11.8c-2.97,2.57-5.64,4.59-8.02,6.06c-0.31,0.62-1.18,2.42-2.6,5.42c2.97-3.21,5.32-5.42,7.06-6.63
		c1.12-0.76,2.63-1.56,4.53-2.39c1.28-0.55,2.21-0.82,2.78-0.82c0.31,0,0.58,0.12,0.82,0.36c0.26,0.21,0.39,0.5,0.39,0.86
		c0,0.78-0.53,1.33-1.6,1.64C537.95,317.22,536.1,318.12,534.2,319.38z M531.13,313.25c3.9-2.57,7.53-5.83,10.91-9.8
		c1.69-1.97,3.04-3.87,4.06-5.7c0.71-1.28,1.07-2.2,1.07-2.74c0-0.55-0.25-0.82-0.75-0.82c-1.33,0-3.63,2.04-6.88,6.13
		C536.86,303.71,534.05,308.02,531.13,313.25z"/>
	<path d="M574.26,328.75c-0.78,1.38-1.56,2.54-2.32,3.49c-1.5,1.85-2.98,2.78-4.46,2.78c-1.28,0-2.28-0.61-2.99-1.82
		c-0.45-0.78-0.68-1.71-0.68-2.78c0-2.64,0.83-5.55,2.49-8.73c1.85-3.54,4.09-6.26,6.7-8.16c1.71-1.24,3.36-1.85,4.96-1.85
		c1,0,1.83,0.31,2.5,0.93c0.57,0.55,0.86,1.16,0.86,1.85c0,0.52-0.2,1.25-0.61,2.17c0.36,0.5,0.54,0.94,0.54,1.32
		c0,0.5-0.33,1.32-1,2.46c-0.69,1.16-1.38,2.71-2.07,4.63c-0.74,2.04-1.1,3.68-1.1,4.92c0,1,0.3,1.82,0.89,2.46
		c0.17,0.17,0.65,0.44,1.46,0.82c0.59,0.29,0.89,0.78,0.89,1.5c0,0.45-0.17,0.82-0.5,1.1c-0.36,0.31-0.77,0.46-1.25,0.46
		c-1.28,0-2.39-0.57-3.31-1.71c-0.76-0.93-1.14-2.09-1.14-3.49C574.12,330.63,574.16,329.85,574.26,328.75z M578.71,317.03
		c-0.29-0.52-0.59-0.91-0.93-1.16c-0.33-0.25-0.69-0.37-1.07-0.37c-1.81,0-3.77,1.58-5.88,4.74c-2.33,3.49-3.49,6.45-3.49,8.88
		c0,0.59,0.11,1.05,0.34,1.35c0.23,0.31,0.56,0.46,1.02,0.46c1.14,0,2.47-1.21,3.99-3.64c0.86-1.33,1.91-3.29,3.17-5.88
		c0.83-1.69,1.44-2.8,1.82-3.35C577.87,317.78,578.22,317.43,578.71,317.03z"/>
	<path d="M595.72,311.68c-1.54,2.4-2.97,5.09-4.28,8.06c-1.88,4.23-2.82,7.39-2.82,9.48c0,0.59,0.13,1.05,0.38,1.35
		c0.25,0.31,0.62,0.46,1.12,0.46c1.19,0,2.63-1.12,4.31-3.35c1.07-1.38,2.02-2.76,2.85-4.13c0.45-0.78,0.94-1.18,1.46-1.18
		c0.31,0,0.57,0.11,0.79,0.32c0.19,0.21,0.29,0.43,0.29,0.64c0,0.88-1.15,2.84-3.46,5.88c-2.76,3.66-5.28,5.49-7.56,5.49
		c-1.21,0-2.22-0.56-3.03-1.68c-0.5-0.71-0.75-1.72-0.75-3.03c0-2.88,0.83-6.23,2.5-10.05c0.4-0.95,1.52-3.24,3.35-6.88
		c-0.64,0.17-1.13,0.25-1.46,0.25c-0.5,0-0.94-0.12-1.32-0.36c-0.52-0.33-0.78-0.75-0.78-1.25c0-0.59,0.34-1.07,1.03-1.43
		c0.19-0.09,1.07-0.25,2.64-0.46c0.57-0.09,1.4-0.32,2.49-0.68c0.83-1.5,2.19-3.53,4.06-6.1c1.04-1.43,1.77-2.35,2.17-2.78
		c0.57-0.59,1.07-0.89,1.5-0.89c0.31,0,0.62,0.17,0.93,0.5c0.29,0.31,0.43,0.62,0.43,0.93c0,0.62-0.67,1.84-2,3.67
		c-0.88,1.19-1.53,2.15-1.96,2.89c2.64-0.71,4.53-1.07,5.67-1.07c1.31,0,1.96,0.55,1.96,1.64c0,0.55-0.23,0.95-0.68,1.21
		c-0.24,0.14-0.86,0.26-1.85,0.36c-0.4-0.02-2.2,0.43-5.38,1.35C597.44,311.12,596.57,311.4,595.72,311.68z"/>
	<path d="M603.84,332.03c0.52,0,0.96,0.24,1.32,0.71c0.24,0.31,0.36,0.7,0.36,1.18c0,1.12-0.31,2.29-0.93,3.53
		c-0.64,1.31-1.49,1.96-2.53,1.96c-1.09,0-1.64-0.62-1.64-1.85s0.38-2.5,1.14-3.78C602.25,332.62,603.01,332.03,603.84,332.03z
		 M610.9,314.28c0.52,0,0.96,0.24,1.32,0.71c0.24,0.31,0.36,0.7,0.36,1.18c0,1.12-0.31,2.28-0.93,3.49c-0.67,1.33-1.51,2-2.53,2
		c-1.09,0-1.64-0.62-1.64-1.85c0-1.24,0.38-2.5,1.14-3.78C609.29,314.87,610.05,314.28,610.9,314.28z"/>
</g>
<g>
	<path d="M211.44,434l5.88-18.11c1.14-3.25,2.51-6.42,4.12-9.5c-0.17,0.03-0.55,0.22-1.16,0.55c-2.31,0.94-3.96,1.41-4.93,1.41
		c-1.38,0-2.06-0.52-2.06-1.56c0-1.11,0.54-2.7,1.61-4.78c1.07-2.08,2.15-3.64,3.22-4.68c2.45-2.25,6.18-4.02,11.19-5.33
		c5.01-1.31,10.62-1.96,16.82-1.96c3.75,0,7.15,0.32,10.18,0.96c3.03,0.64,5.62,1.58,7.77,2.84c2.15,1.26,3.78,2.77,4.9,4.55
		c1.12,1.78,1.69,3.76,1.69,5.93c0,3.05-0.64,5.77-1.91,8.15c-1.27,2.38-3.29,4.61-6.04,6.69c-3.05,2.28-5.93,3.79-8.65,4.53
		c-0.3,0.1-0.82,0.2-1.56,0.3v0.25c11.77,1.51,17.65,6.37,17.65,14.58c0,1.64-0.28,3.35-0.83,5.13c-0.55,1.78-1.36,3.52-2.41,5.23
		c-1.06,1.71-2.32,3.27-3.8,4.68c-3.19,3.12-6.97,6.02-11.34,8.7c-4.38,2.68-8.78,4.84-13.2,6.49s-8.21,2.46-11.37,2.46
		c-2.65,0-5.19-0.3-7.62-0.91c-2.43-0.6-4.37-1.4-5.81-2.39c-1.44-0.99-2.16-2.05-2.16-3.19c0-1.04,0.29-2.01,0.88-2.92
		c0.59-0.91,1.67-2.03,3.24-3.37l-0.2-0.2c-0.91,0.34-1.79,0.5-2.67,0.5c-1.84,0-3.34-0.54-4.48-1.61
		c-1.14-1.07-1.71-2.53-1.71-4.38c0-1.04,0.47-3.46,1.41-7.27C209.06,441.99,210.16,438.06,211.44,434z M233.38,427.42
		c-0.13,0.44-0.27,0.92-0.41,1.46s-0.27,1.04-0.4,1.51c-1.59,5.33-3.04,9.65-4.36,12.97c-1.32,3.32-2.72,6.14-4.2,8.45
		c-0.84,1.41-2.05,2.9-3.62,4.48c4.06,1.24,6.95,2.04,8.68,2.41c1.73,0.37,3.45,0.55,5.16,0.55c1.98,0,3.73-0.29,5.26-0.88
		c1.53-0.59,2.96-1.53,4.3-2.84c1.98-1.94,3.59-4.26,4.83-6.94c1.24-2.68,1.86-5.28,1.86-7.79c0-2.75-0.95-5.08-2.86-6.99
		c-0.94-0.94-1.98-1.66-3.14-2.16c-1.16-0.5-2.75-0.92-4.8-1.26c-1.88-0.37-3.18-0.72-3.92-1.05
		C235.01,428.99,234.22,428.36,233.38,427.42z M240.9,401.56l-6.41,22.03c0.4,0.07,0.8,0.1,1.2,0.1c1.77,0,3.82-0.82,6.16-2.46
		c2.94-2.04,5.22-4.23,6.83-6.56c1.62-2.33,2.43-4.6,2.43-6.81c0-4.59-2.42-6.89-7.25-6.89
		C242.53,400.96,241.54,401.16,240.9,401.56z"/>
	<path d="M308.25,408.86c5,0,7.49,0.59,7.49,1.76c0,1.34-1.12,2.06-3.37,2.16c-2.72,0.17-5.25,0.94-7.59,2.31
		c-2.35,1.38-4.43,3.25-6.26,5.63c-1.83,2.38-3.25,5.06-4.27,8.05c-1.02,2.98-1.53,6.14-1.53,9.46c0,3.66,0.85,6.6,2.56,8.83
		c1.71,2.23,3.94,3.34,6.69,3.34c2.55,0,4.78-1.31,6.69-3.92s2.87-5.67,2.87-9.15c0-2.85-0.6-5.52-1.79-8.02
		c-1.19-2.5-2.93-4.6-5.21-6.31c-0.97-0.77-1.46-1.32-1.46-1.66c0-0.47,0.69-1.19,2.06-2.16c1.54-1.04,3.27-1.91,5.18-2.62
		c1.91-0.7,3.52-1.06,4.83-1.06c1.51,0,2.94,0.39,4.3,1.18c1.36,0.79,2.56,1.91,3.6,3.37c1.04,1.46,1.84,3.13,2.39,5.03
		c0.55,1.89,0.83,3.92,0.83,6.06c0,3.55-0.67,7.07-2.01,10.54c-1.34,3.47-3.1,6.28-5.28,8.42c-2.82,2.72-6.21,4.94-10.18,6.66
		c-3.97,1.73-7.75,2.59-11.34,2.59c-3.49,0-6.95-0.6-10.39-1.81c-3.44-1.21-6.16-2.8-8.17-4.78c-2.68-2.68-4.02-6.49-4.02-11.42
		c0-3.89,0.96-7.78,2.87-11.67c1.91-3.89,4.5-7.42,7.77-10.59c3.27-3.17,6.87-5.67,10.81-7.49
		C300.25,409.77,304.23,408.86,308.25,408.86z"/>
	<path d="M364.08,408.86c5,0,7.49,0.59,7.49,1.76c0,1.34-1.12,2.06-3.37,2.16c-2.72,0.17-5.25,0.94-7.59,2.31
		c-2.35,1.38-4.43,3.25-6.26,5.63c-1.83,2.38-3.25,5.06-4.27,8.05c-1.02,2.98-1.53,6.14-1.53,9.46c0,3.66,0.85,6.6,2.56,8.83
		c1.71,2.23,3.94,3.34,6.69,3.34c2.55,0,4.78-1.31,6.69-3.92s2.87-5.67,2.87-9.15c0-2.85-0.6-5.52-1.79-8.02
		c-1.19-2.5-2.93-4.6-5.21-6.31c-0.97-0.77-1.46-1.32-1.46-1.66c0-0.47,0.69-1.19,2.06-2.16c1.54-1.04,3.27-1.91,5.18-2.62
		c1.91-0.7,3.52-1.06,4.83-1.06c1.51,0,2.94,0.39,4.3,1.18c1.36,0.79,2.56,1.91,3.6,3.37c1.04,1.46,1.84,3.13,2.39,5.03
		c0.55,1.89,0.83,3.92,0.83,6.06c0,3.55-0.67,7.07-2.01,10.54c-1.34,3.47-3.1,6.28-5.28,8.42c-2.82,2.72-6.21,4.94-10.18,6.66
		c-3.97,1.73-7.75,2.59-11.34,2.59c-3.49,0-6.95-0.6-10.39-1.81c-3.44-1.21-6.16-2.8-8.17-4.78c-2.68-2.68-4.02-6.49-4.02-11.42
		c0-3.89,0.96-7.78,2.87-11.67c1.91-3.89,4.5-7.42,7.77-10.59c3.27-3.17,6.87-5.67,10.81-7.49
		C356.07,409.77,360.05,408.86,364.08,408.86z"/>
	<path d="M395.91,410.82l0.2-0.6c2.22-6.24,4.13-10.63,5.74-13.18c0.77-1.21,1.85-2.28,3.22-3.22c2.58-1.64,5.02-2.46,7.3-2.46
		c1.34,0,2.37,0.3,3.07,0.91c0.7,0.6,1.06,1.48,1.06,2.62c0,0.77-0.51,2.35-1.52,4.72c-1.72,3.96-3,7.66-3.85,11.11
		c0.57,0.07,1.12,0.17,1.66,0.3c2.01,0.3,3.34,0.65,3.98,1.03s0.96,1.08,0.96,2.09c0,1.78-0.45,3.42-1.36,4.93
		c-0.91,1.51-2.09,2.62-3.57,3.32c-1.11,0.5-2.9,0.84-5.38,1.01c-0.43,1.31-0.91,3.1-1.44,5.38c-0.3,2.01-0.63,4.8-0.99,8.35
		c-0.2,1.31-0.3,2.53-0.3,3.67c0,5.29,2.56,7.94,7.7,7.94h0.3h0.15c0.6,0,0.91,0.1,0.91,0.3c0,0.54-0.57,1.44-1.71,2.71
		c-1.14,1.28-2.4,2.4-3.77,3.37c-1.48,1.01-3.09,1.81-4.83,2.41s-3.33,0.91-4.74,0.91c-3.53,0-6.39-1.19-8.59-3.57
		c-2.2-2.38-3.3-5.53-3.3-9.46c0-1.68,0.29-3.87,0.88-6.59c0.59-2.72,1.5-6.35,2.74-10.91c0.2-0.8,0.42-1.65,0.65-2.54
		c0.23-0.89,0.37-1.42,0.4-1.58c-1.34-0.03-2.3-0.32-2.87-0.85c-0.57-0.54-0.85-1.41-0.85-2.62c0-2.11,0.81-4.11,2.44-5.99
		C391.83,412.46,393.73,411.29,395.91,410.82z"/>
	<path d="M436.8,461.61c1.98-0.1,3.78-1.06,5.41-2.89c1.63-1.83,2.44-3.81,2.44-5.96c0-1.47-0.49-2.65-1.46-3.52
		c-1.04-1.04-3.37-2.06-6.99-3.07c-5.33-1.54-8.8-3.27-10.41-5.18c-1.51-1.54-2.26-3.39-2.26-5.53c0-3.85,1.4-7.71,4.2-11.57
		c2.8-3.86,6.38-7.02,10.74-9.48c4.36-2.46,8.75-3.7,13.18-3.7c2.15,0,4.16,0.5,6.04,1.51c1.88,1.01,3.37,2.34,4.48,4
		c1.11,1.66,1.66,3.46,1.66,5.41c0,1.91-0.6,3.89-1.81,5.93c-1.21,2.05-2.72,3.75-4.55,5.1c-1.83,1.36-3.56,2.04-5.21,2.04
		c-0.94,0-1.75-0.2-2.44-0.6c-0.69-0.4-1.03-0.84-1.03-1.31c0-0.47,0.13-1.16,0.4-2.06c0.74-2.88,1.11-5.4,1.11-7.54
		c0-2.11-0.64-4.11-1.91-5.98c-1.64,1.14-2.72,2.04-3.22,2.71c-1.27,1.47-2.26,3.15-2.97,5.02c-0.77,1.91-1.16,3.72-1.16,5.43
		c0,1.21,0.28,2.17,0.83,2.89c0.56,0.72,1.46,1.33,2.72,1.84s3.16,1.06,5.71,1.66c4.26,1.04,7.26,2.05,9,3.02
		c0.4,0.24,1.02,0.72,1.86,1.46c1.27,1.38,1.91,3.15,1.91,5.33c0,2.32-0.72,4.65-2.16,7.02c-1.44,2.36-3.67,4.8-6.69,7.32
		c-3.22,2.72-6.42,4.66-9.61,5.84c-3.19,1.17-6.71,1.76-10.56,1.76c-3.72,0-6.65-0.74-8.78-2.21c-2.13-1.48-3.19-3.49-3.19-6.04
		c0-1.81,0.7-3.65,2.11-5.51c1.41-1.86,3.16-3.38,5.26-4.55c2.1-1.17,4.15-1.76,6.16-1.76c1.51,0,2.26,0.33,2.26,1.01
		c0,0.33-0.22,0.89-0.65,1.66c-1.31,2.35-1.96,4.51-1.96,6.49C435.24,459,435.76,460.34,436.8,461.61z"/>
	<path d="M477.54,410.82l0.2-0.6c2.22-6.24,4.13-10.63,5.74-13.18c0.77-1.21,1.85-2.28,3.22-3.22c2.58-1.64,5.02-2.46,7.3-2.46
		c1.34,0,2.37,0.3,3.07,0.91c0.7,0.6,1.06,1.48,1.06,2.62c0,0.77-0.51,2.35-1.52,4.72c-1.72,3.96-3,7.66-3.85,11.11
		c0.57,0.07,1.12,0.17,1.66,0.3c2.01,0.3,3.34,0.65,3.98,1.03s0.96,1.08,0.96,2.09c0,1.78-0.45,3.42-1.36,4.93
		c-0.91,1.51-2.09,2.62-3.57,3.32c-1.11,0.5-2.9,0.84-5.38,1.01c-0.43,1.31-0.91,3.1-1.44,5.38c-0.3,2.01-0.63,4.8-0.99,8.35
		c-0.2,1.31-0.3,2.53-0.3,3.67c0,5.29,2.56,7.94,7.7,7.94h0.3h0.15c0.6,0,0.91,0.1,0.91,0.3c0,0.54-0.57,1.44-1.71,2.71
		c-1.14,1.28-2.4,2.4-3.77,3.37c-1.48,1.01-3.09,1.81-4.83,2.41s-3.33,0.91-4.74,0.91c-3.53,0-6.39-1.19-8.59-3.57
		c-2.2-2.38-3.3-5.53-3.3-9.46c0-1.68,0.29-3.87,0.88-6.59c0.59-2.72,1.5-6.35,2.74-10.91c0.2-0.8,0.42-1.65,0.65-2.54
		c0.23-0.89,0.37-1.42,0.4-1.58c-1.34-0.03-2.3-0.32-2.87-0.85c-0.57-0.54-0.85-1.41-0.85-2.62c0-2.11,0.81-4.11,2.44-5.99
		C473.45,412.46,475.36,411.29,477.54,410.82z"/>
	<path d="M520.49,444.11l-0.2,1.01c0,0.57-0.07,1.39-0.2,2.46c-0.13,1.64-0.32,2.98-0.55,4.02c-0.23,1.04-0.59,1.9-1.06,2.59
		c-0.47,0.69-1.11,1.42-1.91,2.19c-2.45,2.25-4.91,3.37-7.39,3.37c-2.01,0-3.5-0.74-4.45-2.21c-0.96-1.47-1.43-3.86-1.43-7.14
		c0-2.62,0.29-5.84,0.88-9.68c0.59-3.84,1.3-7.28,2.14-10.33l0.4-1.31c0-0.2,0.1-0.62,0.3-1.26c1.24-4.56,2.38-7.94,3.42-10.13
		c1.04-2.2,2.3-3.96,3.77-5.31c1.31-1.04,2.78-1.56,4.43-1.56c2.38,0,3.82,1.44,4.33,4.32c0.47-0.4,0.92-0.87,1.36-1.41
		c0.97-1.17,1.73-1.95,2.26-2.34c0.54-0.38,1.16-0.58,1.86-0.58c2.88,0,4.33,2.85,4.33,8.55c0,3.12-0.34,6.14-1.01,9.05
		c-0.67,2.92-1.52,5.3-2.54,7.14c-1.02,1.84-2.04,2.77-3.04,2.77c-1.11,0-1.66-2.09-1.66-6.29c0-2.21-0.13-3.95-0.38-5.21
		c-0.25-1.26-0.65-2.24-1.18-2.94c-1.01,1.88-1.66,6.17-1.96,12.88C520.75,440.66,520.59,443.11,520.49,444.11z"/>
	<path d="M571.28,444.82v0.2l-0.2-0.2c-3.12,3.65-5.98,6.65-8.57,8.98c-2.6,2.33-5,4.08-7.19,5.26c-2.2,1.17-4.22,1.76-6.06,1.76
		c-3.76,0-6.86-1.26-9.3-3.77c-2.45-2.51-3.67-5.7-3.67-9.56c0-2.38,0.6-5.2,1.81-8.45c1.21-3.25,2.87-6.44,4.98-9.56
		c3.52-5.1,7.95-9.42,13.28-12.98c5.5-3.65,10.8-5.48,15.89-5.48c4.29,0,7.82,0.88,10.59,2.64c2.77,1.76,4.15,3.98,4.15,6.66
		c0,1.98-0.69,4.07-2.06,6.29c1.81,0,2.95,0.19,3.42,0.58c0.47,0.39,0.7,1.28,0.7,2.69c0-0.13-0.08,0.55-0.25,2.06
		c-0.2,3.32-0.3,6.42-0.3,9.3c0,1.51,0.02,2.65,0.05,3.42c0.03,0.77,0.1,1.66,0.2,2.67s0.2,1.81,0.3,2.41
		c0.27,1.58,0.7,3.14,1.31,4.68c-2.01,1.98-3.94,3.43-5.78,4.35c-1.84,0.92-3.72,1.38-5.63,1.38c-5.16,0-7.75-4.33-7.75-12.98
		C571.18,446.17,571.22,445.39,571.28,444.82z M574.3,433.3l-0.96,0.3c-2.41,0.67-4.16,1.01-5.23,1.01c-1.31,0-1.96-0.33-1.96-1.01
		c0-0.23,0.27-0.85,0.8-1.86c1.88-2.85,2.82-5.53,2.82-8.05c0-1.44-0.25-2.76-0.75-3.95s-1.06-1.79-1.66-1.79
		c-0.54,0-1.36,0.57-2.46,1.71c-3.12,3.39-5.59,6.86-7.42,10.41c-1.83,3.55-2.74,6.72-2.74,9.51c0,1.84,0.38,3.37,1.13,4.58
		c0.75,1.21,1.7,1.81,2.84,1.81c0.97,0,2.79-1.04,5.46-3.12c2.67-2.08,5.66-4.83,8.98-8.25l1.36-1.11L574.3,433.3z"/>
	<path d="M617.64,426.5l1.56-2.93c1.48-2.6,2.85-4.76,4.11-6.5c1.26-1.74,2.38-3.01,3.35-3.82c0.97-0.81,2.13-1.47,3.48-1.97
		c1.11-0.44,2.32-0.66,3.63-0.66c2.55,0,4.81,0.75,6.78,2.26c1.96,1.51,3.48,3.67,4.54,6.49c1.06,2.82,1.59,6.05,1.59,9.71
		c0,5.26-1.18,10.32-3.55,15.16c-2.36,4.85-5.47,8.76-9.31,11.74c-3.84,2.99-7.81,4.48-11.9,4.48c-2.38,0-4.37-0.5-5.96-1.51
		c-1.59-1.01-3.06-2.73-4.4-5.18l-0.34,0.86l-0.3,1.11c-2.18,7.01-3.92,12.16-5.21,15.46c-1.29,3.3-2.41,5.32-3.34,6.06
		c-0.74,0.7-1.59,1.06-2.56,1.06c-1.91,0-3.4-0.94-4.48-2.82c-1.07-1.88-1.61-4.51-1.61-7.9c0-3.69,0.4-8.11,1.21-13.28
		c0.8-5.16,1.92-10.43,3.34-15.79c1.42-5.36,3.01-10.24,4.74-14.63c1.14-2.68,2.39-5.03,3.76-7.04c1.37-2.01,2.67-3.47,3.91-4.38
		c0.9-0.54,1.87-0.8,2.91-0.8c1.54,0,2.72,0.42,3.56,1.27s1.25,2.04,1.25,3.59c0,1.32-0.13,2.77-0.4,4.35
		c-0.2,1.55-0.39,3.34-0.55,5.36L617.64,426.5z M613.83,447.93c0.94,2.75,2.72,4.13,5.33,4.13c1.84,0,3.56-0.83,5.16-2.49
		c1.59-1.66,2.87-3.91,3.82-6.74c0.96-2.83,1.43-5.81,1.43-8.93c0-2.48-0.19-4.63-0.58-6.44c-0.39-1.81-0.81-2.72-1.28-2.72
		c-0.33,0-1.19,0.89-2.56,2.67c-1.38,1.78-2.75,3.84-4.12,6.19c-2.82,4.56-4.95,8.58-6.39,12.07
		C614.27,446.58,614,447.33,613.83,447.93z"/>
	<path d="M655.07,459.65c-1.27,0-2.31-0.36-3.12-1.08s-1.21-1.67-1.21-2.84c0-2.08,1.11-4.83,3.32-8.25c0.4-0.6,0.8-1.11,1.21-1.51
		c1.01-1.01,2.28-1.83,3.82-2.46c1.54-0.64,3.02-0.96,4.43-0.96c1.34,0,2.41,0.29,3.22,0.86s1.21,1.32,1.21,2.26
		c0,1.14-0.3,2.57-0.91,4.3c-0.6,1.73-1.32,3.28-2.16,4.65c-0.47,0.77-1.26,1.53-2.36,2.26
		C659.76,458.73,657.28,459.65,655.07,459.65z M658.69,440.89c-2.28,0-3.42-1.12-3.42-3.37c0-0.57,0.18-1.68,0.55-3.32
		c2.75-11.94,5.7-22.23,8.85-30.88c0.74-2.15,1.63-3.79,2.67-4.93c1.24-1.34,3.15-2.49,5.74-3.44c2.58-0.96,5.1-1.43,7.55-1.43
		c2.28,0,3.42,0.79,3.42,2.37c0,1.81-2.27,8.42-6.82,19.81c-4.69,11.57-7.41,17.87-8.14,18.91c-0.67,0.97-1.68,1.95-3.02,2.92
		c-1.34,0.97-2.7,1.78-4.07,2.41C660.63,440.58,659.53,440.89,658.69,440.89z"/>
</g>
</svg>
