<?xml version="1.0" encoding="utf-8"?>
<!-- Generator: Adobe Illustrator 24.0.2, SVG Export Plug-In . SVG Version: 6.00 Build 0)  -->
<svg version="1.1" id="Layer_1" xmlns="http://www.w3.org/2000/svg" xmlns:xlink="http://www.w3.org/1999/xlink" x="0px" y="0px"
	 viewBox="0 0 900 792" style="enable-background:new 0 0 900 792;" xml:space="preserve">
<g>
	<path d="M450,679.94c-75.84,0-147.14-29.53-200.77-83.16C195.6,543.14,166.06,471.84,166.06,396s29.53-147.14,83.16-200.77
		S374.16,112.06,450,112.06s147.14,29.53,200.77,83.16c53.63,53.63,83.16,124.93,83.16,200.77s-29.53,147.14-83.16,200.77
		C597.14,650.4,525.84,679.94,450,679.94z M450,129.06c-147.19,0-266.94,119.75-266.94,266.94c0,147.19,119.75,266.94,266.94,266.94
		c147.19,0,266.94-119.75,266.94-266.94C716.94,248.81,597.19,129.06,450,129.06z"/>
</g>
<rect x="717.84" y="540.74" transform="matrix(0.6568 -0.754 0.754 0.6568 -231.166 774.4534)" width="34.84" height="200.9"/>
<g>
	<path d="M314.48,294.07c-4.75,0.74-9.16,1.68-13.22,2.82c-0.86,0.31-1.52,0.46-2,0.46c-0.55,0-1.01-0.25-1.39-0.75
		c-0.24-0.29-0.36-0.62-0.36-1c0-1.02,0.74-1.77,2.21-2.25c3.94-1.19,8.59-2.28,13.94-3.28c6.7-1.21,13.14-1.82,19.32-1.82
		c2.09,0,3.49,0.13,4.21,0.39c0.67,0.24,1,0.69,1,1.35c0,1.12-0.82,1.77-2.46,1.96c-1.43,0.14-3.58,0.25-6.45,0.32
		c-5.73,0.19-9.65,0.55-11.76,1.07c0.59,0.24,0.89,0.61,0.89,1.1c0,0.52-0.38,1.34-1.14,2.46c-4.52,6.61-8.83,14.1-12.94,22.49
		c-3.14,6.37-5.43,12.02-6.88,16.97c-0.33,1.5-0.9,2.25-1.71,2.25c-0.74,0-1.35-0.38-1.85-1.14c-0.33-0.5-0.5-1.02-0.5-1.57
		c0-2.19,2.08-7.51,6.24-15.97c2.66-5.44,5.12-10.03,7.38-13.76c0.9-1.52,3.08-5.05,6.52-10.59L314.48,294.07z"/>
	<path d="M329.6,328.75c-0.78,1.38-1.56,2.54-2.32,3.49c-1.5,1.85-2.98,2.78-4.46,2.78c-1.28,0-2.28-0.61-2.99-1.82
		c-0.45-0.78-0.68-1.71-0.68-2.78c0-2.64,0.83-5.55,2.5-8.73c1.85-3.54,4.09-6.26,6.7-8.16c1.71-1.24,3.36-1.85,4.95-1.85
		c1,0,1.83,0.31,2.5,0.93c0.57,0.55,0.86,1.16,0.86,1.85c0,0.52-0.2,1.25-0.61,2.17c0.36,0.5,0.53,0.94,0.53,1.32
		c0,0.5-0.33,1.32-1,2.46c-0.69,1.16-1.38,2.71-2.07,4.63c-0.74,2.04-1.1,3.68-1.1,4.92c0,1,0.3,1.82,0.89,2.46
		c0.17,0.17,0.65,0.44,1.46,0.82c0.59,0.29,0.89,0.78,0.89,1.5c0,0.45-0.17,0.82-0.5,1.1c-0.36,0.31-0.77,0.46-1.25,0.46
		c-1.28,0-2.39-0.57-3.31-1.71c-0.76-0.93-1.14-2.09-1.14-3.49C329.45,330.63,329.5,329.85,329.6,328.75z M334.05,317.03
		c-0.29-0.52-0.59-0.91-0.93-1.16c-0.33-0.25-0.69-0.37-1.07-0.37c-1.81,0-3.77,1.58-5.88,4.74c-2.33,3.49-3.49,6.45-3.49,8.88
		c0,0.59,0.11,1.05,0.34,1.35c0.23,0.31,0.56,0.46,1.02,0.46c1.14,0,2.47-1.21,3.99-3.64c0.86-1.33,1.91-3.29,3.17-5.88
		c0.83-1.69,1.44-2.8,1.82-3.35C333.21,317.78,333.55,317.43,334.05,317.03z"/>
	<path d="M352.62,319.38c-1.54,3.83-2.32,6.74-2.32,8.73c0,0.97,0.19,1.78,0.57,2.42c0.48,0.81,1.1,1.21,1.89,1.21
		c1.62,0,3.48-1.08,5.6-3.24c1.4-1.38,2.58-2.78,3.53-4.21c0.62-0.95,1.2-1.43,1.75-1.43c0.55,0,0.82,0.27,0.82,0.82
		c0,0.9-1.09,2.76-3.28,5.56c-3.23,4.16-6.37,6.24-9.41,6.24c-1.83,0-3.13-0.89-3.89-2.67c-0.57-1.31-0.86-2.69-0.86-4.13
		c0-1.21,0.29-3.01,0.86-5.38c-1.54,1.28-3.89,4.42-7.02,9.41c-0.83,1.35-1.59,2.03-2.28,2.03c-0.36,0-0.67-0.15-0.93-0.46
		c-0.26-0.33-0.39-0.67-0.39-1c0-0.95,1.25-4.12,3.74-9.52c4.4-9.43,9.1-17.37,14.12-23.81c2.71-3.52,5.14-6.08,7.31-7.7
		c1.95-1.47,3.5-2.21,4.67-2.21c0.52,0,0.99,0.21,1.39,0.64c0.52,0.52,0.78,1.16,0.78,1.92c0,2.02-1.06,4.61-3.17,7.77
		c-2.21,3.26-5.96,7.19-11.26,11.8c-2.97,2.57-5.64,4.59-8.02,6.06c-0.31,0.62-1.18,2.42-2.6,5.42c2.97-3.21,5.32-5.42,7.06-6.63
		c1.12-0.76,2.63-1.56,4.53-2.39c1.28-0.55,2.21-0.82,2.78-0.82c0.31,0,0.58,0.12,0.82,0.36c0.26,0.21,0.39,0.5,0.39,0.86
		c0,0.78-0.53,1.33-1.6,1.64C356.38,317.22,354.52,318.12,352.62,319.38z M349.56,313.25c3.9-2.57,7.53-5.83,10.91-9.8
		c1.69-1.97,3.04-3.87,4.06-5.7c0.71-1.28,1.07-2.2,1.07-2.74c0-0.55-0.25-0.82-0.75-0.82c-1.33,0-3.62,2.04-6.88,6.13
		C355.28,303.71,352.48,308.02,349.56,313.25z"/>
	<path d="M373.3,313.29c0.4,0,0.74,0.15,1,0.46c0.19,0.26,0.29,0.52,0.29,0.78c0,0.43-0.34,1.14-1.03,2.14
		c-2.47,3.83-4.23,6.97-5.28,9.45c-1.12,2.54-2.1,5.16-2.96,7.84c-0.38,1.19-0.97,1.78-1.78,1.78c-0.48,0-0.86-0.19-1.14-0.57
		c-0.26-0.31-0.39-0.64-0.39-1c0-0.71,0.76-3.09,2.28-7.13c1.19-3.18,3.11-6.7,5.77-10.55c0.86-1.26,1.5-2.1,1.92-2.53
		C372.4,313.51,372.84,313.29,373.3,313.29z M380.07,300.06c1.07,0,1.6,0.55,1.6,1.64c0,1-0.52,2.1-1.57,3.31
		c-1,1.16-1.96,1.75-2.89,1.75c-0.45,0-0.82-0.17-1.1-0.5c-0.29-0.31-0.43-0.69-0.43-1.14c0-1.14,0.63-2.35,1.89-3.64
		C378.5,300.54,379.33,300.06,380.07,300.06z"/>
	<path d="M380.18,322.41c0.31-0.29,0.61-0.57,0.89-0.86c4.97-4.85,8.29-7.27,9.98-7.27c0.93,0,1.39,0.51,1.39,1.53
		c0,0.71-0.42,1.56-1.25,2.53c-4.54,5.3-6.81,9.97-6.81,14.01c0,1.31,0.36,2.55,1.07,3.74c0.33,0.55,0.5,0.97,0.5,1.28
		c0,0.29-0.14,0.56-0.43,0.82c-0.31,0.33-0.68,0.5-1.1,0.5c-0.97,0-1.79-0.62-2.46-1.85c-0.64-1.16-0.96-2.58-0.96-4.24
		c0-3.21,1.21-6.76,3.64-10.66c-3.23,2.07-6.24,5.73-9.02,10.98c-0.71,1.26-1.47,1.89-2.28,1.89c-0.4,0-0.74-0.14-1-0.43
		c-0.33-0.33-0.5-0.76-0.5-1.28c0-1.28,1.46-4.65,4.38-10.09c1.57-2.95,2.8-5.08,3.71-6.42c0.9-1.31,1.68-1.96,2.32-1.96
		c0.31,0,0.61,0.14,0.89,0.43c0.33,0.33,0.5,0.71,0.5,1.14c0,0.52-0.34,1.27-1.03,2.25C381.6,319.9,380.79,321.22,380.18,322.41z"/>
	<path d="M403.02,331.57c2.54-1.85,4.43-3.54,5.67-5.06c1.83-2.21,3.12-4,3.89-5.38c0.38-0.62,0.77-0.93,1.18-0.93
		c0.57,0,0.86,0.27,0.86,0.82c0,0.64-0.45,1.71-1.35,3.21c-2.8,4.56-7.01,8.54-12.62,11.94c-2.61,5.47-4.54,9.17-5.77,11.12
		c-3.28,5.13-6.37,7.7-9.27,7.7c-1.52,0-2.61-0.59-3.28-1.78c-0.38-0.69-0.57-1.47-0.57-2.35c0-3.73,2.4-7.31,7.2-10.73
		c0.76-0.57,3.84-2.35,9.23-5.35c1.05-2.21,1.85-3.94,2.42-5.2c-2.5,2.61-4.56,3.92-6.2,3.92c-1.02,0-1.82-0.52-2.39-1.57
		c-0.36-0.69-0.53-1.4-0.53-2.14c0-1.71,0.7-3.91,2.1-6.59c2-3.87,4.4-6.94,7.2-9.2c2.35-1.88,4.43-2.82,6.24-2.82
		c0.93,0,1.72,0.34,2.39,1.03c0.45,0.45,0.68,1.12,0.68,2c0,1.09-0.37,2.45-1.1,4.06c0.55,0.52,0.82,0.92,0.82,1.18
		c0,0.17-0.12,0.4-0.36,0.71c-0.64,0.88-1.68,2.53-3.1,4.95C405.08,327.23,403.97,329.38,403.02,331.57z M396.04,338.91
		c-3.14,1.33-5.9,3.35-8.31,6.06c-1.12,1.26-1.91,2.59-2.39,3.99c-0.14,0.43-0.21,0.78-0.21,1.07c0,0.31,0.07,0.58,0.21,0.82
		c0.26,0.43,0.63,0.64,1.1,0.64c1.47,0,3.2-1.58,5.17-4.74C393.33,344.02,394.8,341.41,396.04,338.91z M402.77,323.34
		c-0.33-0.36-0.5-0.61-0.5-0.75c0-0.21,0.18-0.49,0.53-0.82c1.19-1.14,2.15-2.33,2.89-3.56c0.59-0.97,0.89-1.73,0.89-2.28
		c0-0.64-0.3-0.96-0.89-0.96c-1.02,0-2.48,0.97-4.38,2.92c-2.26,2.31-4.02,4.88-5.28,7.73c-0.62,1.43-0.93,2.52-0.93,3.28
		c0,0.43,0.09,0.75,0.29,0.96c0.19,0.21,0.46,0.32,0.82,0.32c0.83,0,2-0.86,3.49-2.57c0.95-1.09,1.76-2.16,2.42-3.21
		C402.58,323.72,402.8,323.36,402.77,323.34z"/>
	<path d="M443.37,328.75c-0.78,1.38-1.56,2.54-2.32,3.49c-1.5,1.85-2.98,2.78-4.46,2.78c-1.28,0-2.28-0.61-2.99-1.82
		c-0.45-0.78-0.68-1.71-0.68-2.78c0-2.64,0.83-5.55,2.5-8.73c1.85-3.54,4.09-6.26,6.7-8.16c1.71-1.24,3.36-1.85,4.95-1.85
		c1,0,1.83,0.31,2.5,0.93c0.57,0.55,0.86,1.16,0.86,1.85c0,0.52-0.2,1.25-0.61,2.17c0.36,0.5,0.53,0.94,0.53,1.32
		c0,0.5-0.33,1.32-1,2.46c-0.69,1.16-1.38,2.71-2.07,4.63c-0.74,2.04-1.1,3.68-1.1,4.92c0,1,0.3,1.82,0.89,2.46
		c0.17,0.17,0.65,0.44,1.46,0.82c0.59,0.29,0.89,0.78,0.89,1.5c0,0.45-0.17,0.82-0.5,1.1c-0.36,0.31-0.77,0.46-1.25,0.46
		c-1.28,0-2.39-0.57-3.31-1.71c-0.76-0.93-1.14-2.09-1.14-3.49C443.23,330.63,443.28,329.85,443.37,328.75z M447.83,317.03
		c-0.29-0.52-0.59-0.91-0.93-1.16c-0.33-0.25-0.69-0.37-1.07-0.37c-1.81,0-3.77,1.58-5.88,4.74c-2.33,3.49-3.49,6.45-3.49,8.88
		c0,0.59,0.11,1.05,0.34,1.35c0.23,0.31,0.56,0.46,1.02,0.46c1.14,0,2.47-1.21,3.99-3.64c0.86-1.33,1.91-3.29,3.17-5.88
		c0.83-1.69,1.44-2.8,1.82-3.35C446.98,317.78,447.33,317.43,447.83,317.03z"/>
	<path d="M475.88,322.8c-0.71,1.85-1.25,3.35-1.6,4.49s-0.53,1.94-0.53,2.39c0,0.59,0.29,0.89,0.86,0.89c0.86,0,1.96-0.81,3.31-2.42
		c0.64-0.78,1.59-2.2,2.85-4.24c0.5-0.81,1.02-1.21,1.57-1.21c0.62,0,0.93,0.3,0.93,0.89c0,1.02-1.18,3.09-3.53,6.2
		c-2.45,3.26-4.72,4.88-6.81,4.88c-0.9,0-1.64-0.38-2.21-1.14c-0.4-0.55-0.61-1.21-0.61-2c0-1.33,0.4-3.17,1.21-5.52
		s2.01-5.22,3.6-8.59c4.09-8.58,8.26-15.65,12.51-21.21c3.4-4.47,6.21-6.7,8.45-6.7c0.71,0,1.29,0.27,1.75,0.82
		c0.47,0.55,0.71,1.18,0.71,1.89c0,3.33-2.97,8.86-8.91,16.61c-2.66,3.45-5.85,6.89-9.55,10.34
		C478.9,320.07,477.57,321.28,475.88,322.8z M478.41,317.13c4.94-4.23,9.36-9.58,13.26-16.04c2.02-3.35,3.03-5.57,3.03-6.67
		c0-0.52-0.23-0.78-0.68-0.78c-1.31,0-3.68,2.6-7.13,7.81C484.04,305.73,481.22,310.96,478.41,317.13z"/>
	<path d="M499.48,311.65c1.95,0,2.92,1.19,2.92,3.56c0,3.16-1.46,7.16-4.38,12.01c-3.19,5.25-6.26,7.88-9.23,7.88
		c-1.38,0-2.39-0.64-3.03-1.92c-0.33-0.64-0.5-1.41-0.5-2.32c0-3.04,1.05-6.34,3.14-9.91c1.95-3.3,4.24-5.87,6.88-7.7
		C496.82,312.18,498.22,311.65,499.48,311.65z M495.77,325.12c-0.59-0.48-0.89-0.84-0.89-1.1c0-0.19,0.38-0.71,1.14-1.57
		c2.14-2.4,3.21-4.34,3.21-5.81c0-0.19-0.06-0.38-0.18-0.57c-0.19-0.36-0.49-0.53-0.89-0.53c-0.76,0-1.88,0.74-3.35,2.21
		c-1.9,1.9-3.35,3.86-4.35,5.88c-1.16,2.31-1.75,4.22-1.75,5.74c0,0.4,0.11,0.76,0.32,1.07c0.31,0.43,0.7,0.64,1.18,0.64
		c1.14,0,2.36-0.86,3.67-2.57c0.57-0.71,1.03-1.45,1.39-2.21C495.63,325.54,495.79,325.14,495.77,325.12z"/>
	<path d="M516.41,311.65c1.95,0,2.92,1.19,2.92,3.56c0,3.16-1.46,7.16-4.38,12.01c-3.19,5.25-6.26,7.88-9.23,7.88
		c-1.38,0-2.39-0.64-3.03-1.92c-0.33-0.64-0.5-1.41-0.5-2.32c0-3.04,1.05-6.34,3.14-9.91c1.95-3.3,4.24-5.87,6.88-7.7
		C513.75,312.18,515.15,311.65,516.41,311.65z M512.7,325.12c-0.59-0.48-0.89-0.84-0.89-1.1c0-0.19,0.38-0.71,1.14-1.57
		c2.14-2.4,3.21-4.34,3.21-5.81c0-0.19-0.06-0.38-0.18-0.57c-0.19-0.36-0.49-0.53-0.89-0.53c-0.76,0-1.88,0.74-3.35,2.21
		c-1.9,1.9-3.35,3.86-4.35,5.88c-1.17,2.31-1.75,4.22-1.75,5.74c0,0.4,0.11,0.76,0.32,1.07c0.31,0.43,0.7,0.64,1.18,0.64
		c1.14,0,2.36-0.86,3.67-2.57c0.57-0.71,1.03-1.45,1.39-2.21C512.56,325.54,512.73,325.14,512.7,325.12z"/>
	<path d="M534.2,319.38c-1.54,3.83-2.32,6.74-2.32,8.73c0,0.97,0.19,1.78,0.57,2.42c0.47,0.81,1.1,1.21,1.89,1.21
		c1.62,0,3.48-1.08,5.6-3.24c1.4-1.38,2.58-2.78,3.53-4.21c0.62-0.95,1.2-1.43,1.75-1.43s0.82,0.27,0.82,0.82
		c0,0.9-1.09,2.76-3.28,5.56c-3.23,4.16-6.37,6.24-9.41,6.24c-1.83,0-3.13-0.89-3.88-2.67c-0.57-1.31-0.86-2.69-0.86-4.13
		c0-1.21,0.29-3.01,0.86-5.38c-1.55,1.28-3.89,4.42-7.02,9.41c-0.83,1.35-1.59,2.03-2.28,2.03c-0.36,0-0.67-0.15-0.93-0.46
		c-0.26-0.33-0.39-0.67-0.39-1c0-0.95,1.25-4.12,3.74-9.52c4.4-9.43,9.1-17.37,14.12-23.81c2.71-3.52,5.14-6.08,7.31-7.7
		c1.95-1.47,3.5-2.21,4.67-2.21c0.52,0,0.99,0.21,1.39,0.64c0.52,0.52,0.79,1.16,0.79,1.92c0,2.02-1.06,4.61-3.17,7.77
		c-2.21,3.26-5.96,7.19-11.26,11.8c-2.97,2.57-5.64,4.59-8.02,6.06c-0.31,0.62-1.18,2.42-2.6,5.42c2.97-3.21,5.32-5.42,7.06-6.63
		c1.12-0.76,2.63-1.56,4.53-2.39c1.28-0.55,2.21-0.82,2.78-0.82c0.31,0,0.58,0.12,0.82,0.36c0.26,0.21,0.39,0.5,0.39,0.86
		c0,0.78-0.53,1.33-1.6,1.64C537.95,317.22,536.1,318.12,534.2,319.38z M531.13,313.25c3.9-2.57,7.53-5.83,10.91-9.8
		c1.69-1.97,3.04-3.87,4.06-5.7c0.71-1.28,1.07-2.2,1.07-2.74c0-0.55-0.25-0.82-0.75-0.82c-1.33,0-3.63,2.04-6.88,6.13
		C536.86,303.71,534.05,308.02,531.13,313.25z"/>
	<path d="M574.26,328.75c-0.78,1.38-1.56,2.54-2.32,3.49c-1.5,1.85-2.98,2.78-4.46,2.78c-1.28,0-2.28-0.61-2.99-1.82
		c-0.45-0.78-0.68-1.71-0.68-2.78c0-2.64,0.83-5.55,2.49-8.73c1.85-3.54,4.09-6.26,6.7-8.16c1.71-1.24,3.36-1.85,4.96-1.85
		c1,0,1.83,0.31,2.5,0.93c0.57,0.55,0.86,1.16,0.86,1.85c0,0.52-0.2,1.25-0.61,2.17c0.36,0.5,0.54,0.94,0.54,1.32
		c0,0.5-0.33,1.32-1,2.46c-0.69,1.16-1.38,2.71-2.07,4.63c-0.74,2.04-1.1,3.68-1.1,4.92c0,1,0.3,1.82,0.89,2.46
		c0.17,0.17,0.65,0.44,1.46,0.82c0.59,0.29,0.89,0.78,0.89,1.5c0,0.45-0.17,0.82-0.5,1.1c-0.36,0.31-0.77,0.46-1.25,0.46
		c-1.28,0-2.39-0.57-3.31-1.71c-0.76-0.93-1.14-2.09-1.14-3.49C574.12,330.63,574.16,329.85,574.26,328.75z M578.71,317.03
		c-0.29-0.52-0.59-0.91-0.93-1.16c-0.33-0.25-0.69-0.37-1.07-0.37c-1.81,0-3.77,1.58-5.88,4.74c-2.33,3.49-3.49,6.45-3.49,8.88
		c0,0.59,0.11,1.05,0.34,1.35c0.23,0.31,0.56,0.46,1.02,0.46c1.14,0,2.47-1.21,3.99-3.64c0.86-1.33,1.91-3.29,3.17-5.88
		c0.83-1.69,1.44-2.8,1.82-3.35C577.87,317.78,578.22,317.43,578.71,317.03z"/>
	<path d="M595.72,311.68c-1.54,2.4-2.97,5.09-4.28,8.06c-1.88,4.23-2.82,7.39-2.82,9.48c0,0.59,0.13,1.05,0.38,1.35
		c0.25,0.31,0.62,0.46,1.12,0.46c1.19,0,2.63-1.12,4.31-3.35c1.07-1.38,2.02-2.76,2.85-4.13c0.45-0.78,0.94-1.18,1.46-1.18
		c0.31,0,0.57,0.11,0.79,0.32c0.19,0.21,0.29,0.43,0.29,0.64c0,0.88-1.15,2.84-3.46,5.88c-2.76,3.66-5.28,5.49-7.56,5.49
		c-1.21,0-2.22-0.56-3.03-1.68c-0.5-0.71-0.75-1.72-0.75-3.03c0-2.88,0.83-6.23,2.5-10.05c0.4-0.95,1.52-3.24,3.35-6.88
		c-0.64,0.17-1.13,0.25-1.46,0.25c-0.5,0-0.94-0.12-1.32-0.36c-0.52-0.33-0.78-0.75-0.78-1.25c0-0.59,0.34-1.07,1.03-1.43
		c0.19-0.09,1.07-0.25,2.64-0.46c0.57-0.09,1.4-0.32,2.49-0.68c0.83-1.5,2.19-3.53,4.06-6.1c1.04-1.43,1.77-2.35,2.17-2.78
		c0.57-0.59,1.07-0.89,1.5-0.89c0.31,0,0.62,0.17,0.93,0.5c0.29,0.31,0.43,0.62,0.43,0.93c0,0.62-0.67,1.84-2,3.67
		c-0.88,1.19-1.53,2.15-1.96,2.89c2.64-0.71,4.53-1.07,5.67-1.07c1.31,0,1.96,0.55,1.96,1.64c0,0.55-0.23,0.95-0.68,1.21
		c-0.24,0.14-0.86,0.26-1.85,0.36c-0.4-0.02-2.2,0.43-5.38,1.35C597.44,311.12,596.57,311.4,595.72,311.68z"/>
	<path d="M603.84,332.03c0.52,0,0.96,0.24,1.32,0.71c0.24,0.31,0.36,0.7,0.36,1.18c0,1.12-0.31,2.29-0.93,3.53
		c-0.64,1.31-1.49,1.96-2.53,1.96c-1.09,0-1.64-0.62-1.64-1.85s0.38-2.5,1.14-3.78C602.25,332.62,603.01,332.03,603.84,332.03z
		 M610.9,314.28c0.52,0,0.96,0.24,1.32,0.71c0.24,0.31,0.36,0.7,0.36,1.18c0,1.12-0.31,2.28-0.93,3.49c-0.67,1.33-1.51,2-2.53,2
		c-1.09,0-1.64-0.62-1.64-1.85c0-1.24,0.38-2.5,1.14-3.78C609.29,314.87,610.05,314.28,610.9,314.28z"/>
</g>
<g>
	<path d="M249.6,439.26l16.81,0.44c-1.11,8.7-4.12,15.42-9.04,20.17s-11.33,7.12-19.24,7.12c-8.04,0-14.77-2.7-20.19-8.09
		c-5.42-5.39-8.13-12.08-8.13-20.07c0-8.04,2.76-14.8,8.29-20.29c5.52-5.48,12.33-8.23,20.43-8.23c7.96,0,14.61,2.69,19.93,8.07
		c3.69,3.72,6.3,8.9,7.83,15.54l-17.2,1.15c-1.92-5.91-5.58-8.86-10.96-8.86c-3.43,0-6.26,1.19-8.48,3.56
		c-2.23,2.37-3.34,5.39-3.34,9.06c0,3.53,1.09,6.45,3.28,8.76c2.19,2.31,4.96,3.46,8.31,3.46c3.4,0,6.11-1.02,8.13-3.05
		C248.04,445.98,249.23,443.06,249.6,439.26z"/>
	<path d="M291.6,425.38c5.59,0,10.38,2.01,14.38,6.03c3.99,4.02,5.99,8.84,5.99,14.46c0,5.7-2.02,10.55-6.07,14.55
		c-4.05,4.01-8.93,6.01-14.65,6.01c-5.72,0-10.61-2.01-14.67-6.03c-4.06-4.02-6.09-8.87-6.09-14.54c0-5.77,2.03-10.63,6.09-14.57
		C280.63,427.35,285.65,425.38,291.6,425.38z M291.21,439.98c-1.58,0-2.93,0.57-4.03,1.72c-1.11,1.15-1.66,2.55-1.66,4.21
		c0,1.64,0.56,3.03,1.68,4.19s2.46,1.74,4.01,1.74c1.58,0,2.93-0.58,4.05-1.74s1.68-2.56,1.68-4.19c0-1.66-0.55-3.06-1.66-4.21
		C294.17,440.55,292.82,439.98,291.21,439.98z"/>
	<path d="M372.25,465.65h-14.79v-21.28c0-1.63-0.17-2.77-0.51-3.4c-0.34-0.63-0.96-0.95-1.86-0.95c-1.66,0-2.49,1.46-2.49,4.39
		v21.24H337.8v-21.28c0-1.63-0.18-2.77-0.53-3.4c-0.36-0.63-0.98-0.95-1.88-0.95c-1.64,0-2.45,1.46-2.45,4.39v21.24h-14.79v-24.28
		c0-4.43,1.49-8.19,4.47-11.29c2.98-3.1,6.59-4.65,10.84-4.65c4.38,0,8.31,1.85,11.79,5.54c3.88-3.69,7.75-5.54,11.63-5.54
		c4.93,0,8.89,1.79,11.87,5.38c2.35,2.79,3.52,6.87,3.52,12.22V465.65z"/>
	<path d="M394.83,480.24h-14.79v-32.91c0-6.04,1.58-10.96,4.75-14.75c1.82-2.19,4.13-3.93,6.94-5.22c2.81-1.29,5.69-1.94,8.64-1.94
		c5.88,0,10.84,1.98,14.87,5.93c4.04,3.96,6.05,8.81,6.05,14.55c0,5.59-2,10.42-6.01,14.48s-8.75,6.09-14.24,6.09
		c-0.9,0-2.21-0.09-3.96-0.28V449.9c1.21,0.98,2.43,1.46,3.64,1.46c1.53,0,2.84-0.57,3.94-1.7c1.09-1.13,1.64-2.48,1.64-4.03
		s-0.57-2.88-1.7-3.97s-2.49-1.64-4.07-1.64c-3.8,0-5.7,2.62-5.7,7.87V480.24z"/>
	<path d="M446.49,425.38c5.59,0,10.38,2.01,14.38,6.03c3.99,4.02,5.99,8.84,5.99,14.46c0,5.7-2.02,10.55-6.07,14.55
		c-4.05,4.01-8.93,6.01-14.65,6.01s-10.61-2.01-14.67-6.03s-6.09-8.87-6.09-14.54c0-5.77,2.03-10.63,6.09-14.57
		S440.53,425.38,446.49,425.38z M446.09,439.98c-1.58,0-2.93,0.57-4.03,1.72c-1.11,1.15-1.66,2.55-1.66,4.21
		c0,1.64,0.56,3.03,1.68,4.19s2.46,1.74,4.01,1.74c1.58,0,2.93-0.58,4.05-1.74s1.68-2.56,1.68-4.19c0-1.66-0.55-3.06-1.66-4.21
		C449.06,440.55,447.7,439.98,446.09,439.98z"/>
	<path d="M508.18,465.65h-14.79v-22.27c0-2.27-0.94-3.4-2.81-3.4c-1.85,0-2.77,1.13-2.77,3.4v22.27h-14.79v-21.99
		c0-5.14,1.7-9.47,5.1-12.99c3.4-3.52,7.57-5.28,12.5-5.28c5.64,0,10.17,2.04,13.57,6.13c2.66,3.19,4,7.63,4,13.33V465.65z"/>
	<path d="M555.57,448.32h-22.42c-0.34-1.13-0.51-2.17-0.51-3.12c0-1.32,0.24-2.61,0.71-3.88h7.51c-0.53-2.93-2.17-4.39-4.94-4.39
		c-1.85,0-3.35,0.79-4.51,2.35s-1.74,3.58-1.74,6.03c0,2.56,0.56,4.63,1.68,6.21s2.59,2.37,4.41,2.37c1.48,0,2.9-0.74,4.27-2.21
		l8.42,10.13c-3.93,3.08-8.29,4.63-13.09,4.63c-5.85,0-10.77-1.96-14.75-5.89s-5.97-8.79-5.97-14.59c0-5.77,2.01-10.65,6.03-14.63
		s8.96-5.97,14.81-5.97c5.72,0,10.53,1.95,14.42,5.83c3.89,3.89,5.83,8.68,5.83,14.38C555.72,446.13,555.67,447.06,555.57,448.32z"
		/>
	<path d="M596.86,465.65h-14.79v-22.27c0-2.27-0.94-3.4-2.81-3.4c-1.85,0-2.77,1.13-2.77,3.4v22.27H561.7v-21.99
		c0-5.14,1.7-9.47,5.1-12.99c3.4-3.52,7.57-5.28,12.5-5.28c5.64,0,10.17,2.04,13.57,6.13c2.66,3.19,4,7.63,4,13.33V465.65z"/>
	<path d="M618.65,411.66v15.11h6.64v15.62h-6.64c0,3.14,0.49,5.3,1.48,6.49c0.99,1.19,2.8,1.78,5.44,1.78v15.54
		c-0.76,0.03-1.33,0.04-1.7,0.04c-3.35,0-6.51-0.78-9.47-2.33c-2.97-1.56-5.35-3.67-7.14-6.33c-2.27-3.4-3.4-7.91-3.4-13.53v-32.39
		H618.65z"/>
	<path d="M657.29,426.77v15.58c-2.08,0-3.51,0.39-4.29,1.17c-0.78,0.78-1.27,2.31-1.48,4.61c-0.69,7.62-3.64,13-8.86,16.14
		c-2.77,1.63-6.7,2.45-11.79,2.45h-2.06v-15.66h0.67c2.37,0,4.07-0.5,5.08-1.48c1.01-0.99,1.6-2.72,1.76-5.2
		c0.21-4.03,0.59-6.87,1.13-8.5s1.64-3.26,3.3-4.87c2.9-2.82,6.92-4.23,12.06-4.23H657.29z"/>
	<path d="M675.25,447.93c2.58,0,4.81,0.94,6.67,2.81c1.86,1.87,2.79,4.1,2.79,6.68s-0.92,4.78-2.77,6.58s-4.07,2.71-6.68,2.71
		c-2.72,0-4.95-0.88-6.7-2.63c-1.75-1.75-2.63-3.99-2.63-6.7c0-2.64,0.91-4.87,2.73-6.7S672.66,447.93,675.25,447.93z
		 M682.88,411.66l-0.28,33.5h-14.04l-0.83-33.5H682.88z"/>
</g>
</svg>
