<?xml version="1.0" encoding="utf-8"?>
<!-- Generator: Adobe Illustrator 24.0.2, SVG Export Plug-In . SVG Version: 6.00 Build 0)  -->
<svg version="1.1" id="Layer_1" xmlns="http://www.w3.org/2000/svg" xmlns:xlink="http://www.w3.org/1999/xlink" x="0px" y="0px"
	 viewBox="0 0 900 792" style="enable-background:new 0 0 900 792;" xml:space="preserve">
<g>
	<path d="M450,679.94c-75.84,0-147.14-29.53-200.77-83.16C195.6,543.14,166.06,471.84,166.06,396s29.53-147.14,83.16-200.77
		S374.16,112.06,450,112.06s147.14,29.53,200.77,83.16c53.63,53.63,83.16,124.93,83.16,200.77s-29.53,147.14-83.16,200.77
		C597.14,650.4,525.84,679.94,450,679.94z M450,129.06c-147.19,0-266.94,119.75-266.94,266.94c0,147.19,119.75,266.94,266.94,266.94
		c147.19,0,266.94-119.75,266.94-266.94C716.94,248.81,597.19,129.06,450,129.06z"/>
</g>
<rect x="717.84" y="540.74" transform="matrix(0.6568 -0.754 0.754 0.6568 -231.166 774.4534)" width="34.84" height="200.9"/>
<g>
	<path d="M351.54,368.29c1.46-3.74,2.7-7.95,3.73-12.61c1.03-4.66,1.54-8.51,1.54-11.54c0-1.98-0.47-2.98-1.4-2.98
		c-0.86,0-2.43,1.14-4.72,3.43c-3.41,3.67-6.44,7.89-9.1,12.66c-2.66,4.77-4.7,9.65-6.12,14.63c-1.42,4.98-2.13,9.85-2.13,14.6
		c0,3.74,0.4,6.31,1.21,7.69c0.8,1.39,2.33,2.08,4.58,2.08c1.95,0,4.36-0.54,7.24-1.63c6.51-2.58,13.4-6.27,20.66-11.06
		c3.22-2.06,5.26-3.09,6.12-3.09c1.24,0,1.85,0.62,1.85,1.85v0.11c-0.19,1.68-0.77,3.59-1.74,5.73c-1.95,4.12-3.63,6.81-5.05,8.09
		c-2.4,2.13-5.68,4.23-9.85,6.29c-4.17,2.06-8.45,3.74-12.83,5.05c-4.38,1.31-8.05,1.97-11.01,1.97c-3.41,0-6.63-0.65-9.66-1.94
		c-3.03-1.29-5.67-3.06-7.92-5.31s-4.01-4.87-5.28-7.86c-1.27-2.99-1.91-6.2-1.91-9.6c0-2.58,0.41-5.38,1.24-8.39
		c0.82-3.01,2.02-6.17,3.59-9.46c1.57-3.29,3.35-6.38,5.33-9.27c1.16-1.72,2.37-3.37,3.62-4.94c1.25-1.57,2.64-3.11,4.16-4.6
		c1.52-1.5,3.17-2.94,4.97-4.32c1.8-1.38,3.44-2.56,4.94-3.54c2.62-1.76,5.33-3.29,8.14-4.6c2.81-1.31,5.41-2.28,7.81-2.92
		c2.4-0.64,4.58-0.95,6.57-0.95c4.9,0,8.74,1.27,11.51,3.82c2.77,2.55,4.16,6.06,4.16,10.56c0,4.72-1.16,9.65-3.48,14.8
		c-2.32,5.15-5.41,9.65-9.27,13.5c-2.66,2.73-5.3,4.89-7.92,6.46c-2.62,1.57-4.98,2.36-7.08,2.36c-1.83,0-2.75-0.88-2.75-2.64
		c0-0.82,0.51-1.97,1.52-3.43C348.24,375.25,349.81,372.26,351.54,368.29z"/>
	<path d="M418.81,392.66v0.22l-0.22-0.22c-3.48,4.08-6.67,7.42-9.57,10.02c-2.9,2.6-5.58,4.56-8.03,5.87
		c-2.45,1.31-4.71,1.96-6.77,1.96c-4.19,0-7.66-1.4-10.39-4.21c-2.73-2.81-4.1-6.36-4.1-10.67c0-2.66,0.67-5.8,2.02-9.43
		c1.35-3.63,3.2-7.19,5.56-10.67c3.93-5.69,8.87-10.52,14.82-14.49c6.14-4.08,12.05-6.12,17.74-6.12c4.79,0,8.73,0.98,11.82,2.95
		c3.09,1.97,4.63,4.45,4.63,7.44c0,2.21-0.77,4.55-2.3,7.02c2.02,0,3.29,0.22,3.82,0.65c0.52,0.43,0.79,1.43,0.79,3
		c0-0.15-0.09,0.62-0.28,2.3c-0.22,3.71-0.34,7.17-0.34,10.39c0,1.68,0.02,2.96,0.06,3.82c0.04,0.86,0.11,1.85,0.22,2.98
		s0.22,2.02,0.34,2.69c0.3,1.76,0.79,3.5,1.46,5.22c-2.25,2.21-4.4,3.83-6.46,4.86c-2.06,1.03-4.16,1.54-6.29,1.54
		c-5.77,0-8.65-4.83-8.65-14.49C418.69,394.18,418.73,393.3,418.81,392.66z M422.18,379.8l-1.07,0.34c-2.7,0.75-4.64,1.12-5.84,1.12
		c-1.46,0-2.19-0.37-2.19-1.12c0-0.26,0.3-0.95,0.9-2.08c2.1-3.18,3.14-6.18,3.14-8.98c0-1.61-0.28-3.08-0.84-4.41
		c-0.56-1.33-1.18-1.99-1.85-1.99c-0.6,0-1.52,0.64-2.75,1.91c-3.48,3.78-6.24,7.66-8.28,11.62c-2.04,3.97-3.06,7.51-3.06,10.61
		c0,2.06,0.42,3.76,1.26,5.11c0.84,1.35,1.9,2.02,3.17,2.02c1.09,0,3.12-1.16,6.09-3.48c2.98-2.32,6.32-5.39,10.02-9.21l1.52-1.24
		L422.18,379.8z"/>
	<path d="M462.83,391.87l-0.22,1.12c0,0.64-0.08,1.55-0.22,2.75c-0.15,1.83-0.36,3.33-0.62,4.49c-0.26,1.16-0.66,2.13-1.18,2.89
		c-0.52,0.77-1.24,1.58-2.13,2.44c-2.73,2.51-5.48,3.76-8.25,3.76c-2.25,0-3.9-0.82-4.97-2.47c-1.07-1.65-1.6-4.3-1.6-7.97
		c0-2.92,0.33-6.52,0.98-10.81c0.65-4.29,1.45-8.13,2.39-11.54l0.45-1.46c0-0.22,0.11-0.69,0.34-1.4c1.38-5.09,2.66-8.86,3.82-11.31
		c1.16-2.45,2.56-4.43,4.21-5.92c1.46-1.16,3.11-1.74,4.94-1.74c2.66,0,4.27,1.61,4.83,4.83c0.52-0.45,1.03-0.97,1.52-1.57
		c1.09-1.31,1.93-2.18,2.53-2.61c0.6-0.43,1.29-0.65,2.08-0.65c3.22,0,4.83,3.18,4.83,9.55c0,3.48-0.37,6.85-1.12,10.11
		c-0.75,3.26-1.69,5.92-2.84,7.97c-1.14,2.06-2.27,3.09-3.4,3.09c-1.24,0-1.85-2.34-1.85-7.02c0-2.47-0.14-4.41-0.42-5.81
		c-0.28-1.4-0.72-2.5-1.32-3.28c-1.12,2.1-1.85,6.89-2.19,14.38C463.13,388.02,462.94,390.75,462.83,391.87z"/>
	<path d="M518.53,357.62l0.56-2.3c1.16-5.13,2.21-9.27,3.14-12.44c0.94-3.16,1.9-5.84,2.89-8.03c0.99-2.19,1.97-3.77,2.95-4.74
		c1.57-1.68,4.4-2.53,8.48-2.53c1.8,0,3.13,0.09,4.01,0.28c0.88,0.19,1.58,0.52,2.11,1.01c-1.8,5.58-3.04,9.76-3.73,12.55
		c-0.69,2.79-1.45,6.62-2.27,11.48c-1.27,7.94-1.91,15.1-1.91,21.51c0,4.23,0.35,8.62,1.04,13.17c0.69,4.55,1.82,9.61,3.4,15.19
		c-1.98,1.38-3.88,2.56-5.7,3.54c-1.82,0.97-3.54,1.74-5.17,2.3c-1.63,0.56-3.06,0.84-4.3,0.84c-2.17,0-3.71-1.07-4.6-3.2
		c-0.75-1.76-1.24-3.17-1.46-4.24c-0.22-1.07-0.62-4.03-1.18-8.9c-5.02,5.24-9.82,9.37-14.4,12.38c-4.59,3.01-8.25,4.52-10.98,4.52
		c-3.14,0-5.72-1.28-7.72-3.85c-2-2.56-3-5.87-3-9.91c0-3.63,0.78-7.66,2.33-12.1c1.55-4.44,3.7-8.73,6.43-12.89
		c1.8-2.73,3.64-5.04,5.53-6.93c1.89-1.89,4.03-3.64,6.43-5.25c4.34-2.84,7.97-4.27,10.89-4.27
		C513.72,354.81,515.8,355.75,518.53,357.62z M516.79,384.29v-3.26c-1.91,1.68-3.33,2.53-4.27,2.53c-0.52,0-0.79-0.26-0.79-0.79
		c0-0.22,0.11-0.69,0.34-1.4c0.79-2.25,1.18-4.42,1.18-6.51c0-3.03-0.66-6.18-1.97-9.43c-0.56-1.68-1.25-2.53-2.08-2.53
		c-0.41,0-0.75,0.19-1.01,0.56c-1.24,1.42-2.41,3.44-3.54,6.04c-1.12,2.6-2.05,5.43-2.78,8.48c-0.73,3.05-1.1,5.76-1.1,8.11
		c0,4.46,1.35,6.68,4.04,6.68c1.35,0,3.15-0.79,5.42-2.39C512.52,388.79,514.7,386.76,516.79,384.29z"/>
	<path d="M561.43,411.41c2.21-0.11,4.22-1.19,6.04-3.23c1.82-2.04,2.72-4.26,2.72-6.65c0-1.65-0.54-2.96-1.63-3.93
		c-1.16-1.16-3.76-2.3-7.81-3.43c-5.95-1.72-9.83-3.65-11.62-5.78c-1.68-1.72-2.53-3.78-2.53-6.18c0-4.3,1.56-8.61,4.69-12.92
		c3.13-4.3,7.12-7.83,11.99-10.58c4.87-2.75,9.77-4.13,14.71-4.13c2.4,0,4.64,0.56,6.74,1.68c2.1,1.12,3.76,2.61,5,4.46
		c1.24,1.85,1.85,3.87,1.85,6.04c0,2.13-0.67,4.34-2.02,6.63c-1.35,2.28-3.04,4.18-5.08,5.7c-2.04,1.52-3.98,2.27-5.81,2.27
		c-1.05,0-1.96-0.22-2.72-0.67c-0.77-0.45-1.15-0.94-1.15-1.46c0-0.52,0.15-1.29,0.45-2.3c0.82-3.22,1.24-6.03,1.24-8.42
		c0-2.36-0.71-4.58-2.13-6.68c-1.83,1.27-3.03,2.28-3.59,3.03c-1.42,1.65-2.53,3.52-3.31,5.61c-0.86,2.13-1.29,4.15-1.29,6.06
		c0,1.35,0.31,2.42,0.93,3.23c0.62,0.8,1.63,1.49,3.03,2.05s3.53,1.18,6.37,1.86c4.75,1.16,8.1,2.29,10.05,3.37
		c0.45,0.26,1.14,0.81,2.08,1.63c1.42,1.54,2.13,3.52,2.13,5.95c0,2.58-0.81,5.2-2.41,7.84c-1.61,2.64-4.1,5.36-7.47,8.17
		c-3.59,3.03-7.17,5.21-10.73,6.52c-3.56,1.31-7.49,1.97-11.79,1.97c-4.16,0-7.42-0.82-9.8-2.47c-2.38-1.65-3.57-3.89-3.57-6.74
		c0-2.02,0.79-4.07,2.36-6.15c1.57-2.08,3.53-3.77,5.87-5.08c2.34-1.31,4.63-1.97,6.88-1.97c1.68,0,2.53,0.37,2.53,1.12
		c0,0.37-0.24,0.99-0.73,1.85c-1.46,2.62-2.19,5.04-2.19,7.24C559.69,408.49,560.27,409.99,561.43,411.41z"/>
</g>
</svg>
