<?xml version="1.0" encoding="utf-8"?>
<!-- Generator: Adobe Illustrator 24.0.2, SVG Export Plug-In . SVG Version: 6.00 Build 0)  -->
<svg version="1.1" xmlns="http://www.w3.org/2000/svg" xmlns:xlink="http://www.w3.org/1999/xlink" x="0px" y="0px"
	 viewBox="0 0 1280 1024" style="enable-background:new 0 0 1280 1024;" xml:space="preserve">
<style type="text/css">
	.st0{fill:#FFFFFF;}
</style>
<g id="Layer_1">
	<path class="st0" d="M640,932.5c-56.92,0-112.14-11.31-164.13-33.63c-50.2-21.54-95.27-52.38-133.98-91.65
		c-38.69-39.26-69.07-84.97-90.29-135.88c-21.97-52.7-33.1-108.66-33.1-166.35c0-57.68,11.14-113.65,33.1-166.35
		c21.22-50.9,51.6-96.62,90.29-135.88c38.7-39.27,83.78-70.11,133.98-91.65C527.86,88.81,583.08,77.5,640,77.5
		c56.92,0,112.14,11.31,164.13,33.63c50.2,21.54,95.28,52.38,133.98,91.65c38.69,39.26,69.07,84.97,90.29,135.88
		c21.97,52.69,33.1,108.66,33.1,166.35c0,57.68-11.14,113.65-33.1,166.35c-21.22,50.9-51.6,96.62-90.29,135.88
		c-38.7,39.27-83.78,70.11-133.98,91.65C752.14,921.19,696.92,932.5,640,932.5z M640,102.5c-218.63,0-396.5,180.56-396.5,402.5
		c0,221.94,177.87,402.5,396.5,402.5s396.5-180.56,396.5-402.5C1036.5,283.06,858.63,102.5,640,102.5z"/>
</g>
<g id="Layer_2">
	<path class="st0" d="M888.34,492.31l-461.46,0c-5.11,0-7.63-6.22-3.96-9.78l168.21-163.17c3.64-3.53,3.73-9.34,0.2-12.98
		l-4.62-4.77c-3.53-3.64-9.34-3.73-12.98-0.2l-202.88,196.8c-3.72,3.61-3.72,9.57,0,13.18l202.88,196.8
		c3.64,3.53,9.45,3.44,12.98-0.2l4.63-4.77c3.53-3.64,3.44-9.45-0.2-12.98L423.49,527.64c-3.88-3.76-1.22-10.33,4.19-10.33l460.66,0
		c5.07,0,9.18-4.11,9.18-9.18v-6.64C897.52,496.42,893.41,492.31,888.34,492.31z"/>
</g>
</svg>
