<?xml version="1.0" encoding="utf-8"?>
<!-- Generator: Adobe Illustrator 24.0.2, SVG Export Plug-In . SVG Version: 6.00 Build 0)  -->
<svg version="1.1" id="Layer_1" xmlns="http://www.w3.org/2000/svg" xmlns:xlink="http://www.w3.org/1999/xlink" x="0px" y="0px"
	 viewBox="0 0 1280 1024" style="enable-background:new 0 0 1280 1024;" xml:space="preserve">
<style type="text/css">
	.st0{fill:#FFFFFF;}
</style>
<path class="st0" d="M878.83,344.48c22.45,0,40.71,18.28,40.71,40.74v255.56c0,22.46-18.26,40.74-40.71,40.74H418.17
	c-22.45,0-40.71-18.28-40.71-40.74V385.22c0-22.46,18.26-40.74,40.71-40.74H878.83 M878.83,329H418.17
	c-31.02,0-56.17,25.17-56.17,56.22v255.56c0,31.05,25.15,56.22,56.17,56.22h460.66c31.02,0,56.17-25.17,56.17-56.22V385.22
	C935,354.17,909.85,329,878.83,329L878.83,329z"/>
<path class="st0" d="M648.5,667C572.13,667,510,604.87,510,528.5S572.13,390,648.5,390S787,452.13,787,528.5S724.87,667,648.5,667z
	 M648.5,405C580.4,405,525,460.4,525,528.5c0,68.1,55.4,123.5,123.5,123.5c68.1,0,123.5-55.4,123.5-123.5
	C772,460.4,716.6,405,648.5,405z"/>
<path class="st0" d="M648,640c-61.76,0-112-50.24-112-112s50.24-112,112-112s112,50.24,112,112S709.76,640,648,640z M648,423
	c-57.9,0-105,47.1-105,105c0,57.9,47.1,105,105,105c57.9,0,105-47.1,105-105C753,470.1,705.9,423,648,423z"/>
<path class="st0" d="M737.15,319.21l-23.54-58.86c-1.53-3.83-5.24-6.35-9.37-6.35H591.29c-4.26,0-8.06,2.68-9.5,6.69l-20.64,57.58
	c-1.77,4.94-7.21,7.51-12.15,5.74l0,0c-4.94-1.77-7.51-7.21-5.74-12.15l22.9-63.87c2.78-7.76,10.2-12.98,18.45-12.98h126.06
	c8.06,0,15.2,4.83,18.19,12.32l25.93,64.83c1.95,4.87-0.42,10.4-5.29,12.35h0C744.63,326.45,739.1,324.08,737.15,319.21z"/>
<path class="st0" d="M696.1,315H601.9c-5.46,0-9.9-4.44-9.9-9.9V282.9c0-5.46,4.44-9.9,9.9-9.9h94.19c5.46,0,9.9,4.44,9.9,9.9v22.19
	C706,310.56,701.56,315,696.1,315z M601.9,282c-0.5,0-0.9,0.41-0.9,0.9v22.19c0,0.5,0.41,0.9,0.9,0.9h94.19c0.5,0,0.9-0.41,0.9-0.9
	V282.9c0-0.5-0.41-0.9-0.9-0.9H601.9z"/>
<circle class="st0" cx="457" cy="386" r="17"/>
<path class="st0" d="M649,932.5c-56.92,0-112.14-11.31-164.13-33.63c-50.2-21.54-95.27-52.38-133.98-91.65
	c-38.69-39.26-69.07-84.97-90.29-135.88c-21.97-52.7-33.1-108.66-33.1-166.35c0-57.68,11.14-113.65,33.1-166.35
	c21.22-50.9,51.6-96.62,90.29-135.88c38.7-39.27,83.78-70.11,133.98-91.65C536.86,88.81,592.08,77.5,649,77.5
	c56.92,0,112.14,11.31,164.13,33.63c50.2,21.54,95.28,52.38,133.98,91.65c38.69,39.26,69.07,84.97,90.29,135.88
	c21.97,52.69,33.1,108.66,33.1,166.35c0,57.68-11.14,113.65-33.1,166.35c-21.22,50.9-51.6,96.62-90.29,135.88
	c-38.7,39.27-83.78,70.11-133.98,91.65C761.14,921.19,705.92,932.5,649,932.5z M649,102.5c-218.63,0-396.5,180.56-396.5,402.5
	c0,221.94,177.87,402.5,396.5,402.5s396.5-180.56,396.5-402.5C1045.5,283.06,867.63,102.5,649,102.5z"/>
</svg>
