<?xml version="1.0" encoding="utf-8"?>
<!-- Generator: Adobe Illustrator 24.0.2, SVG Export Plug-In . SVG Version: 6.00 Build 0)  -->
<svg version="1.1" xmlns="http://www.w3.org/2000/svg" xmlns:xlink="http://www.w3.org/1999/xlink" x="0px" y="0px"
	 viewBox="0 0 1280 1024" style="enable-background:new 0 0 1280 1024;" xml:space="preserve">
<style type="text/css">
	.st0{fill:#FFFFFF;}
</style>
<g id="Layer_1">
	<path class="st0" d="M640,932.5c-56.92,0-112.14-11.31-164.13-33.63c-50.2-21.54-95.27-52.38-133.98-91.65
		c-38.69-39.26-69.07-84.97-90.29-135.88c-21.97-52.7-33.1-108.66-33.1-166.35c0-57.68,11.14-113.65,33.1-166.35
		c21.22-50.9,51.6-96.62,90.29-135.88c38.7-39.27,83.78-70.11,133.98-91.65C527.86,88.81,583.08,77.5,640,77.5
		c56.92,0,112.14,11.31,164.13,33.63c50.2,21.54,95.28,52.38,133.98,91.65c38.69,39.26,69.07,84.97,90.29,135.88
		c21.97,52.69,33.1,108.66,33.1,166.35c0,57.68-11.14,113.65-33.1,166.35c-21.22,50.9-51.6,96.62-90.29,135.88
		c-38.7,39.27-83.78,70.11-133.98,91.65C752.14,921.19,696.92,932.5,640,932.5z M640,102.5c-218.63,0-396.5,180.56-396.5,402.5
		c0,221.94,177.87,402.5,396.5,402.5s396.5-180.56,396.5-402.5C1036.5,283.06,858.63,102.5,640,102.5z"/>
</g>
<g id="Layer_2">
	<path class="st0" d="M816.94,617.38H462.63c-28.43,0-51.56-23.13-51.56-51.56V294.56c0-28.43,23.13-51.56,51.56-51.56h354.31
		c28.43,0,51.56,23.13,51.56,51.56v271.25C868.5,594.25,845.37,617.38,816.94,617.38z M462.63,261.6
		c-18.18,0-32.97,14.79-32.97,32.97v271.25c0,18.18,14.79,32.97,32.97,32.97h354.31c18.18,0,32.97-14.79,32.97-32.97V294.56
		c0-18.18-14.79-32.97-32.97-32.97H462.63z"/>
	<path class="st0" d="M791.87,565.93H493.89c-16.62,0-30.14-13.52-30.14-30.14v-211.2c0-16.62,13.52-30.14,30.14-30.14h297.98
		c16.62,0,30.14,13.52,30.14,30.14v211.2C822.01,552.41,808.49,565.93,791.87,565.93z M493.89,305.6
		c-10.47,0-18.98,8.52-18.98,18.98v211.2c0,10.47,8.52,18.98,18.98,18.98h297.98c10.47,0,18.98-8.52,18.98-18.98v-211.2
		c0-10.47-8.52-18.98-18.98-18.98H493.89z"/>
	<path class="st0" d="M663.75,689.9h-47.94c-4.18,0-8.03-1.91-10.56-5.24c-2.53-3.33-3.34-7.55-2.21-11.58l10.59-37.94
		c1.59-5.71,6.85-9.7,12.77-9.7h26.77c5.93,0,11.18,3.99,12.77,9.7l10.59,37.94c1.12,4.03,0.32,8.25-2.21,11.58
		C671.79,687.99,667.94,689.9,663.75,689.9z M626.4,636.6c-0.94,0-1.77,0.63-2.03,1.54l-10.59,37.94c-0.24,0.87,0.12,1.53,0.35,1.84
		c0.24,0.31,0.77,0.83,1.67,0.83h47.94c0.91,0,1.44-0.52,1.67-0.83c0.24-0.31,0.59-0.96,0.35-1.84l-10.59-37.94
		c-0.25-0.91-1.09-1.54-2.03-1.54H626.4z"/>
	<path class="st0" d="M810.14,768H469.43c-14.75,0-26.75-12-26.75-26.75v-19.63c0-14.75,12-26.75,26.75-26.75h340.71
		c14.75,0,26.75,12,26.75,26.75v19.63C836.89,756,824.89,768,810.14,768z M469.43,706.02c-8.6,0-15.6,7-15.6,15.6v19.63
		c0,8.6,7,15.6,15.6,15.6h340.71c8.6,0,15.6-7,15.6-15.6v-19.63c0-8.6-7-15.6-15.6-15.6H469.43z"/>
	<g>
		<path class="st0" d="M514.45,353.15v-18.97c0-0.37,0.13-0.69,0.4-0.96c0.27-0.27,0.59-0.41,0.97-0.41c0.37,0,0.69,0.14,0.96,0.41
			c0.27,0.27,0.41,0.59,0.41,0.96v8.09h8.37v-8.09c0-0.37,0.13-0.69,0.4-0.96c0.27-0.27,0.59-0.41,0.97-0.41
			c0.38,0,0.71,0.14,0.97,0.41c0.27,0.27,0.4,0.6,0.4,1v18.94c0,0.37-0.14,0.69-0.42,0.96c-0.28,0.27-0.6,0.41-0.96,0.41
			c-0.39,0-0.72-0.13-0.98-0.4c-0.26-0.27-0.39-0.59-0.39-0.97v-8.14h-8.34v8.14c0,0.37-0.14,0.69-0.42,0.96
			c-0.28,0.27-0.61,0.41-0.99,0.41c-0.37,0-0.69-0.13-0.96-0.4C514.59,353.85,514.45,353.53,514.45,353.15z"/>
		<path class="st0" d="M534.7,336.54v-3.71h13.86v3.74c0,0.38-0.14,0.71-0.41,0.97c-0.27,0.27-0.59,0.4-0.96,0.4
			c-0.38,0-0.71-0.14-0.99-0.41c-0.28-0.27-0.42-0.59-0.42-0.96v-1H543v17.57c0,0.38-0.14,0.71-0.41,0.97
			c-0.27,0.27-0.59,0.4-0.96,0.4c-0.39,0-0.72-0.13-1-0.4c-0.27-0.27-0.41-0.59-0.41-0.97v-17.57h-2.78v0.96
			c0,0.38-0.13,0.71-0.4,0.97c-0.27,0.27-0.59,0.4-0.97,0.4s-0.71-0.13-0.97-0.4C534.84,337.25,534.7,336.92,534.7,336.54z"/>
		<path class="st0" d="M560.48,341.33v-0.7l-2.84-4.05v16.57c0,0.38-0.13,0.71-0.4,0.97c-0.27,0.27-0.59,0.4-0.97,0.4
			s-0.71-0.14-0.97-0.41c-0.27-0.27-0.4-0.59-0.4-0.96V332.8h3.55l3.37,4.92l3.49-4.92h3.48v20.35c0,0.38-0.14,0.71-0.42,0.97
			c-0.28,0.27-0.61,0.4-0.99,0.4c-0.37,0-0.69-0.14-0.96-0.41c-0.27-0.27-0.41-0.59-0.41-0.96v-16.51l-2.78,3.92v0.77
			c0,0.37-0.14,0.69-0.41,0.96c-0.27,0.27-0.59,0.41-0.96,0.41c-0.38,0-0.71-0.14-0.97-0.41
			C560.61,342.02,560.48,341.7,560.48,341.33z"/>
		<path class="st0" d="M575.17,354.52v-20.35c0-0.37,0.14-0.69,0.41-0.96c0.27-0.27,0.59-0.41,0.96-0.41c0.37,0,0.69,0.14,0.96,0.41
			c0.27,0.27,0.41,0.59,0.41,0.96v17.6h9.71c0.38,0,0.71,0.13,0.99,0.4c0.28,0.27,0.42,0.59,0.42,0.97s-0.14,0.71-0.42,0.97
			c-0.28,0.27-0.61,0.4-0.99,0.4H575.17z"/>
	</g>
</g>
</svg>
