<?xml version="1.0" encoding="utf-8"?>
<!-- Generator: Adobe Illustrator 24.3.0, SVG Export Plug-In . SVG Version: 6.00 Build 0)  -->
<svg version="1.1" id="Layer_1" xmlns="http://www.w3.org/2000/svg" xmlns:xlink="http://www.w3.org/1999/xlink" x="0px" y="0px"
	 viewBox="0 0 3088 2436" style="enable-background:new 0 0 3088 2436;" xml:space="preserve">
<style type="text/css">
	.st0{fill:#FFFFFF;}
</style>
<g>
	<path class="st0" d="M1546.78,1214.41l-259.3-375.18L1766.9,421h-148.12l-512.62,452.63L1211.18,421h-117.35l-201.52,873.42h117.38
		l66.12-289.22l119.42-100.31l268.63,388.67c6.34-7.69,12.91-15.2,19.72-22.52C1502.84,1250.31,1523.91,1231.44,1546.78,1214.41z"/>
	<path class="st0" d="M2039.56,1128.21c-51-12.32-102.09-18.48-153.28-18.48c-85.19,0-161.89,14.28-230.08,42.82
		c-40.17,16.82-76.65,37.44-109.43,61.86l55.3,80.01h-137.63l-0.59-0.86c-37.71,45.69-67.19,97.82-88.43,156.39
		c-24.82,68.44-37.22,142.93-37.22,223.49c0,109.5,33.8,193.96,101.41,253.4c67.6,59.44,161.58,89.16,281.93,89.16
		c32.82,0,63.59-2.55,92.31-7.63c28.72-5.09,56.57-11.53,83.53-19.36c31.25-8.99,57.24-17.69,77.95-26.1
		c20.71-8.41,43.97-17.89,69.76-28.45l86.75-374.83h-349.6l-22.29,98.55h232.28l-49.35,223.66c-30.43,11.29-62.89,20.54-97.41,27.75
		s-71.48,10.8-110.87,10.8c-89.71,0-157.48-22.9-203.31-68.68c-45.83-45.79-68.74-110.75-68.74-194.91
		c0-55.96,8.3-111.53,24.91-166.72c16.61-55.18,41.13-103.52,73.55-145.01c33.22-42.26,74.05-76.11,122.49-101.55
		c48.45-25.44,104.92-38.16,169.39-38.16c58.6,0,113.4,9.09,164.4,27.28c51,18.18,98.18,47.61,141.55,88.28h10.55l26.38-132.57
		C2142.64,1160.57,2090.56,1140.53,2039.56,1128.21z"/>
</g>
<path class="st0" d="M1544,2257c-140.26,0-276.33-27.47-404.43-81.66c-123.73-52.33-234.84-127.24-330.25-222.66
	c-95.41-95.41-170.33-206.53-222.66-330.25C532.47,1494.33,505,1358.25,505,1218c0-140.26,27.47-276.33,81.66-404.43
	c52.33-123.73,127.25-234.84,222.66-330.25c95.41-95.41,206.53-170.33,330.25-222.66C1267.67,206.47,1403.74,179,1544,179
	s276.33,27.47,404.43,81.66c123.73,52.33,234.84,127.25,330.25,222.66c95.41,95.41,170.33,206.53,222.66,330.25
	C2555.53,941.67,2583,1077.74,2583,1218c0,140.25-27.47,276.33-81.66,404.43c-52.33,123.73-127.25,234.84-222.66,330.25
	c-95.41,95.41-206.53,170.33-330.25,222.66C1820.33,2229.53,1684.26,2257,1544,2257z M1544,219c-550.85,0-999,448.15-999,999
	s448.15,999,999,999s999-448.15,999-999S2094.85,219,1544,219z"/>
</svg>
