<?xml version="1.0" encoding="utf-8"?>
<!-- Generator: Adobe Illustrator 24.3.0, SVG Export Plug-In . SVG Version: 6.00 Build 0)  -->
<svg version="1.1" id="Layer_1" xmlns="http://www.w3.org/2000/svg" xmlns:xlink="http://www.w3.org/1999/xlink" x="0px" y="0px"
	 viewBox="0 0 3088 2436" style="enable-background:new 0 0 3088 2436;" xml:space="preserve">
<style type="text/css">
	.st0{fill:#FFFFFF;}
</style>
<g>
	<path class="st0" d="M1546.14,1214.88l-213.22-308.5l394.22-343.9h-121.79l-421.51,372.18l86.35-372.18h-96.5L1008,1280.67h96.52
		l54.37-237.82l98.19-82.48l220.88,319.59c5.22-6.32,10.62-12.5,16.22-18.52C1510.02,1244.4,1527.34,1228.88,1546.14,1214.88z"/>
	<path class="st0" d="M1951.35,1144c-41.93-10.13-83.95-15.19-126.04-15.19c-70.05,0-133.11,11.74-189.18,35.21
		c-33.03,13.83-63.02,30.79-89.98,50.86l45.47,65.79h-113.17l-0.49-0.71c-31.01,37.57-55.25,80.43-72.71,128.59
		c-20.41,56.27-30.61,117.53-30.61,183.77c0,90.04,27.79,159.49,83.38,208.36c55.59,48.88,132.86,73.31,231.82,73.31
		c26.99,0,52.29-2.1,75.91-6.27c23.62-4.18,46.51-9.48,68.69-15.92c25.7-7.39,47.06-14.55,64.1-21.46
		c17.03-6.91,36.15-14.71,57.36-23.39l71.33-308.21h-287.47l-18.33,81.03h190.99l-40.58,183.91c-25.02,9.29-51.71,16.89-80.1,22.81
		c-28.38,5.92-58.78,8.88-91.17,8.88c-73.77,0-129.49-18.83-167.17-56.48c-37.68-37.65-56.52-91.07-56.52-160.27
		c0-46.02,6.83-91.71,20.48-137.09c13.66-45.38,33.82-85.12,60.48-119.24c27.31-34.75,60.89-62.58,100.72-83.5
		c39.84-20.92,86.27-31.38,139.29-31.38c48.19,0,93.25,7.48,135.18,22.43c41.93,14.95,80.73,39.15,116.39,72.59h8.67l21.69-109.01
		C2036.1,1170.61,1993.28,1154.13,1951.35,1144z"/>
</g>
<path class="st0" d="M1544,2257c-140.26,0-276.33-27.47-404.43-81.66c-123.73-52.33-234.84-127.24-330.25-222.66
	c-95.41-95.41-170.33-206.53-222.66-330.25C532.47,1494.33,505,1358.25,505,1218c0-140.26,27.47-276.33,81.66-404.43
	c52.33-123.73,127.25-234.84,222.66-330.25c95.41-95.41,206.53-170.33,330.25-222.66C1267.67,206.47,1403.74,179,1544,179
	s276.33,27.47,404.43,81.66c123.73,52.33,234.84,127.25,330.25,222.66c95.41,95.41,170.33,206.53,222.66,330.25
	C2555.53,941.67,2583,1077.74,2583,1218c0,140.25-27.47,276.33-81.66,404.43c-52.33,123.73-127.25,234.84-222.66,330.25
	c-95.41,95.41-206.53,170.33-330.25,222.66C1820.33,2229.53,1684.26,2257,1544,2257z M1544,219c-550.85,0-999,448.15-999,999
	s448.15,999,999,999s999-448.15,999-999S2094.85,219,1544,219z"/>
</svg>
