<?xml version="1.0" encoding="utf-8"?>
<!-- Generator: Adobe Illustrator 24.0.2, SVG Export Plug-In . SVG Version: 6.00 Build 0)  -->
<svg version="1.1" xmlns="http://www.w3.org/2000/svg" xmlns:xlink="http://www.w3.org/1999/xlink" x="0px" y="0px"
	 viewBox="0 0 1280 1024" style="enable-background:new 0 0 1280 1024;" xml:space="preserve">
<style type="text/css">
	.st0{fill:#FFFFFF;}
</style>
<g id="Layer_1">
	<path class="st0" d="M640,932.5c-56.92,0-112.14-11.31-164.13-33.63c-50.2-21.54-95.27-52.38-133.98-91.65
		c-38.69-39.26-69.07-84.97-90.29-135.88c-21.97-52.7-33.1-108.66-33.1-166.35c0-57.68,11.14-113.65,33.1-166.35
		c21.22-50.9,51.6-96.62,90.29-135.88c38.7-39.27,83.78-70.11,133.98-91.65C527.86,88.81,583.08,77.5,640,77.5
		c56.92,0,112.14,11.31,164.13,33.63c50.2,21.54,95.28,52.38,133.98,91.65c38.69,39.26,69.07,84.97,90.29,135.88
		c21.97,52.69,33.1,108.66,33.1,166.35c0,57.68-11.14,113.65-33.1,166.35c-21.22,50.9-51.6,96.62-90.29,135.88
		c-38.7,39.27-83.78,70.11-133.98,91.65C752.14,921.19,696.92,932.5,640,932.5z M640,102.5c-218.63,0-396.5,180.56-396.5,402.5
		c0,221.94,177.87,402.5,396.5,402.5s396.5-180.56,396.5-402.5C1036.5,283.06,858.63,102.5,640,102.5z"/>
</g>
<g id="Layer_2">
	<path class="st0" d="M640.5,470.5c-74.99,0-136-61.01-136-136s61.01-136,136-136c74.99,0,136,61.01,136,136
		S715.49,470.5,640.5,470.5z M640.5,225.5c-60.1,0-109,48.9-109,109s48.9,109,109,109s109-48.9,109-109S700.6,225.5,640.5,225.5z"/>
	<path class="st0" d="M820.84,786L820.84,786c-7.18,0-13-5.82-13-13v-83.24c0-60.54-32.81-116.51-85.64-146.08
		c-50.44-28.24-113.12-28.24-163.56,0C505.81,573.25,473,629.23,473,689.76V773c0,7.18-5.82,13-13,13l0,0c-7.18,0-13-5.82-13-13
		v-83.24c0-69.94,37.91-134.61,98.94-168.77c28.8-16.12,61.47-24.65,94.48-24.65s65.68,8.52,94.48,24.65
		c61.03,34.16,98.94,98.83,98.94,168.77V773C833.84,780.18,828.02,786,820.84,786z"/>
</g>
</svg>
