<?xml version="1.0" encoding="utf-8"?>
<!-- Generator: Adobe Illustrator 24.3.0, SVG Export Plug-In . SVG Version: 6.00 Build 0)  -->
<svg version="1.1" id="Layer_1" xmlns="http://www.w3.org/2000/svg" xmlns:xlink="http://www.w3.org/1999/xlink" x="0px" y="0px"
	 viewBox="0 0 2767 2436" style="enable-background:new 0 0 2767 2436;" xml:space="preserve">
<style type="text/css">
	.st0{fill:#FFFFFF;}
</style>
<path class="st0" d="M1384,2321c-148.9,0-293.3-29.2-429.3-86.7c-65.4-27.6-128.4-61.9-187.4-101.7
	c-58.4-39.5-113.3-84.8-163.2-134.7c-49.9-49.9-95.2-104.8-134.7-163.2c-39.8-59-74.1-122-101.7-187.4
	c-57.5-136-86.7-280.4-86.7-429.3s29.2-293.3,86.7-429.3c27.6-65.4,61.9-128.4,101.7-187.4c39.5-58.4,84.8-113.3,134.7-163.2
	c49.9-49.9,104.8-95.2,163.2-134.7c59-39.8,122-74.1,187.4-101.7c136-57.5,280.4-86.7,429.3-86.7s293.3,29.2,429.3,86.7
	c65.4,27.6,128.4,61.9,187.4,101.7c58.4,39.5,113.3,84.8,163.2,134.7c49.9,49.9,95.2,104.8,134.7,163.2
	c39.8,59,74.1,122,101.7,187.4c57.5,136,86.7,280.4,86.7,429.3s-29.2,293.3-86.7,429.3c-27.6,65.4-61.9,128.4-101.7,187.4
	c-39.5,58.4-84.8,113.3-134.7,163.2c-49.9,49.9-104.8,95.2-163.2,134.7c-59,39.8-122,74.1-187.4,101.7
	C1677.3,2291.8,1532.9,2321,1384,2321z M1384,141C790.1,141,307,624.1,307,1218s483.1,1077,1077,1077s1077-483.1,1077-1077
	S1977.9,141,1384,141z"/>
<path class="st0" d="M1422.8,560.4l-25.1-32.2c-6.4-8.2-21.1-8.3-27.7-0.1l-25.9,32.3c-1.4,0.9-2.2,2-2.2,3v647.2
	c0,4.1,11.4,7.4,25.5,7.4h32c14.1,0,25.5-3.3,25.5-7.4V563.4C1425,562.3,1424.3,561.3,1422.8,560.4z"/>
</svg>
